<svg width="127" height="48" viewBox="0 0 127 48" fill="none" xmlns="http://www.w3.org/2000/svg">
<g clip-path="url(#clip0_16647_273488)">
<path d="M45.83 29.68C45.3051 28.3133 44.5168 27.0629 43.51 26C42.5892 24.9789 41.4652 24.1614 40.21 23.6C39.5033 23.231 38.7634 22.9297 38 22.7C39.6811 22.0032 41.1746 20.9207 42.36 19.54C44.1127 17.3308 44.995 14.5558 44.84 11.74C44.9236 10.158 44.6709 8.57632 44.0986 7.09912C43.5264 5.62192 42.6475 4.28279 41.52 3.17C39.32 1.07 36.28 0 32.44 0H0V3.34H4.85V44.66H0V48H34.13C35.8318 48.0722 37.5296 47.7834 39.1118 47.1526C40.694 46.5218 42.1247 45.5633 43.31 44.34C45.59 41.93 46.74 38.64 46.74 34.58C46.7728 32.9018 46.4632 31.2345 45.83 29.68ZM33.05 19.54C34.69 17.66 35.52 15.04 35.52 11.74C35.5937 10.236 35.3663 8.73238 34.8511 7.31741C34.3359 5.90245 33.5434 4.6046 32.52 3.5C33.4446 3.49457 34.3606 3.67803 35.2117 4.03913C36.0629 4.40024 36.8314 4.93138 37.47 5.6C38.1329 6.31818 38.6522 7.1566 39 8.07C39.5426 9.43451 39.8144 10.8916 39.8 12.36C39.7842 13.7541 39.5131 15.1336 39 16.43C38.6828 17.4461 38.1431 18.3788 37.42 19.16C36.18 20.57 34.26 21.29 31.73 21.29H31.12C31.8207 20.7732 32.4673 20.1869 33.05 19.54ZM20.05 3.47H22.5C23.5476 3.39148 24.5998 3.54126 25.5839 3.90901C26.568 4.27675 27.4606 4.85369 28.2 5.6C28.709 6.1601 29.1304 6.79393 29.45 7.48C30.1663 9.00574 30.5254 10.6747 30.5 12.36C30.5153 13.8637 30.2333 15.3557 29.67 16.75C29.3369 17.6413 28.8343 18.4597 28.19 19.16C27 20.57 25 21.29 22.51 21.29H20.06L20.05 3.47ZM15 44.53H10V24.76H15V44.53ZM15 21.29H10V3.47H15V21.29ZM31 40.68C30.7282 41.1786 30.392 41.6392 30 42.05C29.2497 42.8357 28.3483 43.4615 27.35 43.89C26.158 44.3362 24.8925 44.5534 23.62 44.53H20.06V24.76H23.58C24.8584 24.7324 26.1286 24.9708 27.31 25.46C28.3239 25.8488 29.2417 26.4527 30 27.23C30.2191 27.4605 30.4197 27.708 30.6 27.97C31.9223 29.9301 32.5941 32.2567 32.52 34.62C32.5616 36.7393 32.0369 38.8313 31 40.68ZM40.69 39.76C40.3664 40.6089 39.8807 41.3867 39.26 42.05C38.5041 42.8336 37.5999 43.4591 36.6 43.89C35.7438 44.2166 34.8441 44.4154 33.93 44.48L34.07 44.34C36.35 41.92 37.51 38.64 37.51 34.58C37.5428 32.9018 37.2332 31.2345 36.6 29.68C36.0661 28.3108 35.2676 27.0603 34.25 26C33.8501 25.5616 33.4117 25.16 32.94 24.8C34.1851 24.7828 35.4206 25.021 36.57 25.5C37.5726 25.8938 38.4796 26.4972 39.23 27.27C39.8022 27.8835 40.2595 28.5948 40.58 29.37C41.3452 31.0274 41.7312 32.8346 41.71 34.66C41.7213 36.4148 41.3635 38.1524 40.66 39.76H40.69Z" fill="currentColor"/>
<path d="M69.1599 12.0001H71.2899V20.7001H69.1599V12.0001ZM76.8799 28.0701H74.4699L72.4699 30.3001L71.3199 31.8701H71.2399V24.4501H69.1599V36.7701H71.2899V34.1201L72.4399 32.8801L74.6699 36.7701H77.1999L73.8899 31.4401L76.8799 28.0701ZM64.4899 24.4501H66.6199V36.7701H64.4899V35.3201H64.4099C64.2604 35.808 63.9503 36.2309 63.5299 36.5201C63.0826 36.8361 62.5475 37.0039 61.9999 37.0001C61.515 37.0277 61.0308 36.9343 60.5909 36.7283C60.151 36.5224 59.7692 36.2103 59.4799 35.8201C58.8324 34.8166 58.524 33.6319 58.5999 32.4401C58.5233 31.2545 58.832 30.0759 59.4799 29.0801C59.7713 28.6908 60.1529 28.3782 60.5918 28.1692C61.0308 27.9601 61.5141 27.8609 61.9999 27.8801C62.5392 27.8711 63.0688 28.0244 63.5199 28.3201C63.9419 28.6032 64.2528 29.0237 64.3999 29.5101H64.4799L64.4899 24.4501ZM64.4899 31.0301C64.4992 30.8314 64.4593 30.6334 64.3739 30.4537C64.2884 30.2741 64.16 30.1183 63.9999 30.0001C63.6213 29.7394 63.1694 29.6063 62.7099 29.6201C62.4591 29.6094 62.2091 29.654 61.9775 29.7508C61.7459 29.8476 61.5385 29.9941 61.3699 30.1801C61.014 30.5923 60.8312 31.1262 60.8599 31.6701V33.1701C60.8328 33.7107 61.0155 34.2409 61.3699 34.6501C61.5418 34.8311 61.7501 34.9737 61.9811 35.0685C62.212 35.1632 62.4604 35.2081 62.7099 35.2001C63.1666 35.2151 63.6169 35.0894 63.9999 34.8401C64.1673 34.723 64.3019 34.565 64.3912 34.3813C64.4804 34.1975 64.5213 33.9941 64.5099 33.7901L64.4899 31.0301ZM70.2199 10.7501C70.3983 10.7725 70.5794 10.7575 70.7516 10.7058C70.9238 10.6541 71.0833 10.567 71.2199 10.4501C71.3219 10.3505 71.4014 10.2303 71.4532 10.0975C71.5049 9.96474 71.5277 9.82242 71.5199 9.6801V9.3501C71.5277 9.20779 71.5049 9.06547 71.4532 8.93267C71.4014 8.79987 71.3219 8.67966 71.2199 8.5801C71.0833 8.46317 70.9238 8.37608 70.7516 8.32442C70.5794 8.27275 70.3983 8.25766 70.2199 8.2801C70.0416 8.25889 69.8607 8.27457 69.6887 8.32618C69.5167 8.37779 69.3571 8.46422 69.2199 8.5801C69.0254 8.78845 68.9212 9.06523 68.9299 9.3501V9.6801C68.9212 9.96498 69.0254 10.2418 69.2199 10.4501C69.3571 10.566 69.5167 10.6524 69.6887 10.704C69.8607 10.7556 70.0416 10.7713 70.2199 10.7501ZM67.0999 16.1201C67.2751 16.5165 67.3605 16.9468 67.3499 17.3801C67.3518 17.8237 67.2739 18.2641 67.1199 18.6801C66.9799 19.0684 66.7697 19.4277 66.4999 19.7401C66.219 20.0431 65.8786 20.2848 65.4999 20.4501C65.1236 20.6232 64.7141 20.712 64.2999 20.7101H58.3999V9.0801H63.7799C64.2199 9.07144 64.6576 9.14609 65.0699 9.3001C65.443 9.42487 65.7843 9.62964 66.0699 9.9001C66.3404 10.1643 66.5488 10.4854 66.6799 10.8401C66.8151 11.2325 66.8827 11.6451 66.8799 12.0601C66.8931 12.444 66.8354 12.8271 66.7099 13.1901C66.6061 13.4726 66.4462 13.7311 66.2399 13.9501C66.0549 14.1435 65.8296 14.2937 65.5799 14.3901C65.3317 14.4914 65.0678 14.5489 64.7999 14.5601V14.6601C65.0829 14.6648 65.3632 14.7154 65.6299 14.8101C65.9288 14.9153 66.2041 15.0784 66.4399 15.2901C66.7152 15.5179 66.94 15.8006 67.0999 16.1201ZM60.6499 13.9301H63.3699C63.5391 13.9405 63.7087 13.9166 63.8685 13.8599C64.0284 13.8032 64.1751 13.7149 64.2999 13.6001C64.4138 13.4808 64.5019 13.3393 64.5587 13.1845C64.6154 13.0296 64.6397 12.8647 64.6299 12.7001V12.1801C64.6399 12.0139 64.6158 11.8475 64.559 11.691C64.5023 11.5345 64.4141 11.3912 64.2999 11.2701C64.0438 11.0458 63.7098 10.9309 63.3699 10.9501H60.6499V13.9301ZM65.0499 17.0001C65.0677 16.818 65.0456 16.6342 64.9851 16.4615C64.9247 16.2888 64.8273 16.1314 64.6999 16.0001C64.5632 15.8819 64.4045 15.7918 64.2329 15.7352C64.0612 15.6785 63.8801 15.6564 63.6999 15.6701H60.6499V18.7801H63.7199C64.082 18.8062 64.4402 18.6915 64.7199 18.4601C64.8405 18.3364 64.9339 18.1889 64.9942 18.0271C65.0545 17.8652 65.0802 17.6925 65.0699 17.5201L65.0499 17.0001ZM115.88 14.4901C116.043 15.0385 116.124 15.608 116.12 16.1801V16.8801H110.34V17.1001C110.315 17.653 110.505 18.1943 110.87 18.6101C111.078 18.8108 111.327 18.9652 111.599 19.0635C111.871 19.1617 112.161 19.2014 112.45 19.1801C112.909 19.2001 113.365 19.0854 113.76 18.8501C114.107 18.6219 114.415 18.3381 114.67 18.0101L115.82 19.2901C115.447 19.8066 114.943 20.2141 114.36 20.4701C113.686 20.765 112.956 20.9116 112.22 20.9001C111.63 20.9104 111.044 20.798 110.5 20.5701C110.009 20.3648 109.568 20.0542 109.21 19.6601C108.851 19.2376 108.579 18.7482 108.41 18.2201C108.21 17.6102 108.112 16.9717 108.12 16.3301C108.115 15.6992 108.209 15.0715 108.4 14.4701C108.562 13.9442 108.831 13.4573 109.19 13.0401C109.536 12.6459 109.967 12.3349 110.45 12.1301C111.562 11.6771 112.808 11.6771 113.92 12.1301C114.397 12.3488 114.818 12.6738 115.15 13.0801C115.478 13.5048 115.725 13.9861 115.88 14.5001V14.4901ZM113.88 15.4201C113.908 14.8971 113.752 14.3807 113.44 13.9601C113.287 13.7733 113.093 13.6251 112.872 13.5278C112.651 13.4305 112.411 13.3867 112.17 13.4001C111.917 13.3884 111.664 13.4335 111.43 13.5322C111.197 13.6308 110.988 13.7804 110.82 13.9701C110.473 14.3752 110.294 14.8975 110.32 15.4301V15.5701H113.88V15.4201ZM105.12 9.6201H103.21V11.1001C103.227 11.3405 103.164 11.5799 103.03 11.7801C102.946 11.8645 102.844 11.9283 102.731 11.9665C102.618 12.0047 102.498 12.0162 102.38 12.0001H101.71V13.7201H103V18.5001C102.98 18.797 103.021 19.095 103.12 19.3754C103.22 19.6558 103.377 19.9127 103.58 20.1301C103.804 20.3355 104.068 20.4929 104.355 20.5927C104.642 20.6924 104.947 20.7324 105.25 20.7101H106.78V19.0001H105.13V13.7301H106.91V12.0001H105.13L105.12 9.6201ZM122.71 15.3701L125.71 12.0001H123.29L121.29 14.2301L120.14 15.8001H120.06V8.3801H118V20.7101H120.13V18.0601L121.28 16.8101L123.51 20.7101H126L122.71 15.3701ZM80.8899 13.0001C81.5296 13.9955 81.8344 15.1692 81.7599 16.3501C81.8367 17.5406 81.5319 18.7246 80.8899 19.7301C80.5955 20.1204 80.2102 20.4328 79.7675 20.6402C79.3249 20.8476 78.8382 20.9437 78.3499 20.9201C77.8119 20.9319 77.2837 20.7745 76.8399 20.4701C76.4196 20.1786 76.1068 19.757 75.9499 19.2701H75.8799V20.7201H73.7499V8.3801H75.8799V13.4501H75.9999C76.1494 12.9622 76.4595 12.5393 76.8799 12.2501C77.331 11.9544 77.8606 11.8011 78.3999 11.8101C78.8799 11.7947 79.3566 11.8947 79.7899 12.1018C80.2232 12.3089 80.6004 12.6169 80.8899 13.0001ZM79.5299 15.6201C79.559 15.0696 79.3684 14.5301 78.9999 14.1201C78.8301 13.9358 78.6224 13.7903 78.3911 13.6936C78.1598 13.597 77.9104 13.5514 77.6599 13.5601C77.2016 13.5433 76.7509 13.6806 76.3799 13.9501C76.2192 14.062 76.0885 14.2118 75.9996 14.3862C75.9106 14.5606 75.8661 14.7543 75.8699 14.9501V17.7201C75.8669 17.9157 75.9119 18.1091 76.0008 18.2834C76.0897 18.4577 76.2198 18.6076 76.3799 18.7201C76.7554 18.9784 77.2045 19.1083 77.6599 19.0901C77.9059 19.1065 78.1526 19.0703 78.3837 18.9841C78.6147 18.8979 78.8247 18.7636 78.9999 18.5901C79.3616 18.1847 79.5485 17.6527 79.5199 17.1101L79.5299 15.6201ZM100.45 14.4701C100.646 15.0771 100.741 15.7123 100.73 16.3501C100.74 16.9912 100.646 17.6296 100.45 18.2401C100.278 18.7689 100.002 19.2583 99.6399 19.6801C99.2933 20.0807 98.8586 20.3956 98.3699 20.6001C97.8335 20.8182 97.2589 20.927 96.6799 20.9201C96.1032 20.9263 95.5314 20.814 94.9999 20.5901C94.5128 20.3828 94.0787 20.0684 93.7299 19.6701C93.3744 19.2452 93.1029 18.7565 92.9299 18.2301C92.7304 17.6202 92.6324 16.9817 92.6399 16.3401C92.6324 15.7017 92.7304 15.0665 92.9299 14.4601C93.1029 13.9398 93.3745 13.4577 93.7299 13.0401C94.079 12.6447 94.5132 12.3336 94.9999 12.1301C95.529 11.911 96.0973 11.8021 96.6699 11.8101C97.2489 11.8032 97.8235 11.912 98.3599 12.1301C98.848 12.3311 99.2827 12.6426 99.6299 13.0401C99.9956 13.4537 100.274 13.9366 100.45 14.4601V14.4701ZM98.4499 15.5501C98.4989 15.0108 98.3377 14.4734 97.9999 14.0501C97.8265 13.873 97.6172 13.735 97.3861 13.6453C97.155 13.5556 96.9074 13.5163 96.6599 13.5301C96.417 13.5174 96.1742 13.5573 95.9481 13.647C95.722 13.7368 95.518 13.8743 95.3499 14.0501C95.0038 14.4663 94.8319 15.0001 94.8699 15.5401V17.1601C94.8287 17.7066 95.0008 18.2477 95.3499 18.6701C95.518 18.8459 95.722 18.9834 95.9481 19.0732C96.1742 19.1629 96.417 19.2028 96.6599 19.1901C96.9074 19.2039 97.155 19.1646 97.3861 19.0749C97.6172 18.9853 97.8265 18.8472 97.9999 18.6701C98.349 18.2477 98.5211 17.7066 98.4799 17.1601L98.4499 15.5501ZM85.8799 8.3801H83.7399V18.6101C83.7097 19.1741 83.8957 19.7284 84.2599 20.1601C84.4776 20.3583 84.7338 20.5094 85.0126 20.604C85.2913 20.6987 85.5866 20.7348 85.8799 20.7101H86.9999V19.0001H85.8799V8.3801ZM89.7099 8.2801C89.5315 8.25703 89.3502 8.27182 89.1779 8.32351C89.0056 8.37521 88.8461 8.46264 88.7099 8.5801C88.6097 8.68054 88.532 8.80114 88.482 8.9339C88.432 9.06665 88.4109 9.20853 88.4199 9.3501V9.6801C88.4109 9.82168 88.432 9.96355 88.482 10.0963C88.532 10.2291 88.6097 10.3497 88.7099 10.4501C88.8461 10.5676 89.0056 10.655 89.1779 10.7067C89.3502 10.7584 89.5315 10.7732 89.7099 10.7501C89.8883 10.7719 90.0692 10.7565 90.2413 10.7049C90.4135 10.6533 90.573 10.5665 90.7099 10.4501C90.8119 10.3505 90.8914 10.2303 90.9432 10.0975C90.9949 9.96474 91.0177 9.82242 91.0099 9.6801V9.3501C91.0177 9.20779 90.9949 9.06547 90.9432 8.93267C90.8914 8.79987 90.8119 8.67966 90.7099 8.5801C90.573 8.4637 90.4135 8.37694 90.2413 8.32531C90.0692 8.27367 89.8883 8.25828 89.7099 8.2801ZM88.6399 20.7101H90.7699V12.0001H88.6399V20.7101Z" fill="currentColor" data-text="true"/>
</g>
<defs>
<clipPath id="clip0_16647_273488">
<rect width="126.04" height="48" fill="currentColor"/>
</clipPath>
</defs>
</svg>
