<svg viewBox="0 0 127 48" fill="none" xmlns="http://www.w3.org/2000/svg">
    <path d="M45.9428 29.5837C45.3551 28.1143 44.5714 26.8408 43.5918 25.8612C42.6122 24.7837 41.5347 24 40.2612 23.5102C39.5755 23.1184 38.7918 22.8245 38.0081 22.6286C39.6735 21.9429 41.1428 20.8653 42.4163 19.4939C44.0816 17.6327 44.8653 14.9878 44.8653 11.6571C44.8653 8.03265 43.7877 5.19184 41.5347 3.1347C39.3796 1.07756 36.3428 0 32.5224 0H23.2163H8.81633H0V3.33061H4.79999V44.6694H0V48H8.81633H24.8816H34.1877C38.0082 48 41.0449 46.7265 43.3959 44.3755C45.649 41.9265 46.8245 38.6939 46.8245 34.5796C46.8245 32.6204 46.5306 30.9551 45.9428 29.5837ZM33.2082 19.4939C34.8735 17.6327 35.6571 14.9878 35.6571 11.6571C35.6571 8.22857 34.6775 5.48571 32.6204 3.42857C34.7755 3.52653 36.4408 4.21224 37.5183 5.48571C38.5959 6.75918 38.7918 7.4449 38.9877 7.93469C39.4775 9.1102 39.7714 10.5796 39.7714 12.2449C39.7714 13.7143 39.4775 15.1837 39.0857 16.3592C38.7918 17.3388 38.2041 18.3184 37.5183 19.102C36.2449 20.4735 34.3837 21.2571 31.8367 21.2571H31.249C31.9347 20.6694 32.6204 20.1796 33.2082 19.4939ZM20.1796 3.42857H22.6286C25.1755 3.42857 27.0367 4.11429 28.3102 5.58368C28.8 6.17143 29.2898 6.75918 29.5837 7.4449C30.2694 8.71836 30.6612 10.4816 30.6612 12.3429C30.6612 14.0082 30.3673 15.4775 29.7796 16.751C29.4857 17.6326 28.9959 18.4163 28.3102 19.2C27.0367 20.5714 25.1755 21.3551 22.6286 21.3551H20.1796V3.42857ZM15.0857 44.4735H10.0898V24.6857H15.0857V44.4735ZM15.0857 21.2571H10.0898V3.42857H15.0857V21.2571ZM31.0531 40.6531C30.7592 41.1429 30.4653 41.6326 30.0735 42.0245C29.3877 42.8082 28.5061 43.3959 27.4286 43.8857C26.351 44.2775 25.0775 44.5714 23.7061 44.5714H20.1796V24.7837H23.7061C25.0775 24.7837 26.351 24.9796 27.4286 25.4694C28.5061 25.8612 29.3877 26.449 30.0735 27.2326C30.2694 27.4286 30.4653 27.7225 30.6612 27.9184C31.8367 29.4857 32.6204 31.8367 32.6204 34.5796C32.6204 36.9306 32.0326 39.0857 31.0531 40.6531ZM40.751 39.6735C40.4571 40.5551 39.9673 41.3388 39.2816 41.9265C38.5959 42.7102 37.7143 43.298 36.6367 43.7878C35.8531 44.0816 34.9714 44.2775 33.9918 44.3755C33.9918 44.2775 34.0898 44.2775 34.1877 44.2775C36.4408 41.8286 37.6163 38.5959 37.6163 34.4816C37.6163 32.6204 37.3224 30.9551 36.7347 29.5837C36.1469 28.1143 35.3633 26.8408 34.3837 25.8612C33.9918 25.3714 33.502 24.9796 33.1102 24.6857C34.4816 24.6857 35.6571 24.8816 36.7347 25.3714C37.8122 25.7633 38.6939 26.351 39.3796 27.1347C39.9673 27.7224 40.3592 28.4082 40.751 29.1918C41.4367 30.6612 41.8286 32.5224 41.8286 34.4816C41.8286 36.4408 41.4367 38.302 40.751 39.6735Z" fill="#3333ff"/>
    <path d="M58.5804 9.01221H63.9681C64.4579 9.01221 64.8498 9.11016 65.2416 9.20812C65.6334 9.30608 65.9273 9.59996 66.2212 9.79588C66.5151 10.0898 66.711 10.3836 66.809 10.7755C66.9069 11.1673 67.0049 11.5591 67.0049 11.951C67.0049 12.4408 66.9069 12.7347 66.809 13.0285C66.711 13.3224 66.5151 13.6163 66.3192 13.8122C66.1232 14.0081 65.9273 14.204 65.6334 14.302C65.3396 14.4 65.1436 14.4979 64.8498 14.4979V14.5959C65.1436 14.5959 65.3396 14.6938 65.6334 14.7918C65.9273 14.8898 66.2212 15.0857 66.4171 15.2816C66.711 15.4775 66.9069 15.7714 67.0049 16.1632C67.1028 16.5551 67.2987 16.9469 67.2987 17.4367C67.2987 17.9265 67.2008 18.3183 67.1028 18.7102C66.9069 19.102 66.711 19.4938 66.5151 19.7877C66.2212 20.0816 65.9273 20.2775 65.5355 20.4734C65.1436 20.6693 64.7518 20.7673 64.36 20.7673H58.4824V9.01221H58.5804ZM60.7355 13.8122H63.4783C63.8702 13.8122 64.164 13.7142 64.4579 13.5183C64.6538 13.3224 64.7518 13.0285 64.7518 12.6367V12.1469C64.7518 11.7551 64.6538 11.4612 64.4579 11.2653C64.262 11.0693 63.9681 10.9714 63.4783 10.9714H60.7355V13.8122ZM60.7355 18.8081H63.7722C64.164 18.8081 64.5559 18.7102 64.7518 18.5142C64.9477 18.3183 65.1436 18.0244 65.1436 17.5347V16.9469C65.1436 16.5551 65.0457 16.2612 64.7518 15.9673C64.5559 15.7714 64.164 15.6734 63.7722 15.6734H60.7355V18.8081Z" fill="#212121"/>
    <path d="M70.335 10.6775C69.8452 10.6775 69.5513 10.5795 69.3554 10.3836C69.1595 10.1877 69.0615 9.89382 69.0615 9.59995V9.30606C69.0615 9.01219 69.1595 8.71831 69.3554 8.5224C69.5513 8.32648 69.8452 8.22852 70.335 8.22852C70.7268 8.22852 71.1187 8.32648 71.3146 8.5224C71.5105 8.71831 71.6085 9.01219 71.6085 9.30606V9.59995C71.6085 9.89382 71.5105 10.1877 71.3146 10.3836C71.1187 10.5795 70.7268 10.6775 70.335 10.6775ZM69.2574 11.951H71.4125V20.6693H69.2574V11.951Z" fill="#212121"/>
    <path d="M73.8623 8.32642H76.0174V13.4203H76.1154C76.3113 12.9305 76.6052 12.5387 76.997 12.2448C77.3888 11.9509 77.9766 11.755 78.4664 11.755C79.5439 11.755 80.4256 12.1468 81.0133 12.9305C81.6011 13.7142 81.895 14.7917 81.895 16.2611C81.895 17.7305 81.6011 18.808 81.0133 19.6897C80.4256 20.4734 79.5439 20.8652 78.4664 20.8652C77.8786 20.8652 77.3888 20.6693 76.997 20.3754C76.6052 20.0815 76.3113 19.6897 76.1154 19.1999H76.0174V20.6693H73.8623V8.32642ZM77.7807 19.1019C78.3684 19.1019 78.7603 18.906 79.1521 18.5142C79.5439 18.1223 79.6419 17.6325 79.6419 17.0448V15.5754C79.6419 14.9876 79.446 14.4978 79.1521 14.106C78.7603 13.7142 78.3684 13.5183 77.7807 13.5183C77.2909 13.5183 76.8011 13.6162 76.5072 13.9101C76.2133 14.204 76.0174 14.4978 76.0174 14.8897V17.6325C76.0174 18.1223 76.2133 18.4162 76.5072 18.7101C76.8011 18.906 77.2909 19.1019 77.7807 19.1019Z" fill="#212121"/>
    <path d="M86.0093 20.6693C85.3236 20.6693 84.7358 20.4734 84.4419 20.0815C84.0501 19.6897 83.9521 19.1999 83.9521 18.5142V8.32642H86.1072V18.906H87.2828V20.6693H86.0093Z" fill="#212121"/>
    <path d="M89.8291 10.6775C89.3393 10.6775 89.0455 10.5795 88.8495 10.3836C88.6536 10.1877 88.5557 9.89382 88.5557 9.59995V9.30606C88.5557 9.01219 88.6536 8.71831 88.8495 8.5224C89.0455 8.32648 89.3393 8.22852 89.8291 8.22852C90.221 8.22852 90.6128 8.32648 90.8087 8.5224C91.0046 8.71831 91.1026 9.01219 91.1026 9.30606V9.59995C91.1026 9.89382 91.0046 10.1877 90.8087 10.3836C90.6128 10.5795 90.221 10.6775 89.8291 10.6775ZM88.7516 11.951H90.9067V20.6693H88.7516V11.951Z" fill="#212121"/>
    <path d="M96.7849 20.8651C96.1971 20.8651 95.6094 20.7672 95.1196 20.5713C94.6298 20.3754 94.2379 20.0815 93.8461 19.6896C93.4543 19.2978 93.2584 18.808 93.0624 18.2203C92.8665 17.6325 92.7686 17.0447 92.7686 16.359C92.7686 15.6733 92.8665 14.9876 93.0624 14.4978C93.2584 13.9101 93.5522 13.4203 93.8461 13.0284C94.2379 12.6366 94.6298 12.3427 95.1196 12.1468C95.6094 11.9509 96.1971 11.8529 96.7849 11.8529C97.3726 11.8529 97.9604 11.9509 98.4502 12.1468C98.94 12.3427 99.3318 12.6366 99.7236 13.0284C100.115 13.4203 100.311 13.9101 100.507 14.4978C100.703 15.0856 100.801 15.6733 100.801 16.359C100.801 17.0447 100.703 17.7305 100.507 18.2203C100.311 18.808 100.018 19.2978 99.7236 19.6896C99.3318 20.0815 98.94 20.3754 98.4502 20.5713C97.9604 20.7672 97.3726 20.8651 96.7849 20.8651ZM96.7849 19.1019C97.3726 19.1019 97.7645 18.906 98.1563 18.6121C98.4502 18.2203 98.6461 17.7305 98.6461 17.1427V15.5754C98.6461 14.8896 98.4502 14.3998 98.1563 14.106C97.8624 13.7141 97.3726 13.6162 96.7849 13.6162C96.1971 13.6162 95.8053 13.8121 95.5114 14.106C95.2175 14.4978 95.0216 14.9876 95.0216 15.5754V17.1427C95.0216 17.8284 95.2175 18.3182 95.5114 18.6121C95.8053 18.906 96.1971 19.1019 96.7849 19.1019Z" fill="#212121"/>
    <path d="M105.404 20.6694C104.719 20.6694 104.131 20.4735 103.739 20.0817C103.347 19.6898 103.151 19.2 103.151 18.4164V13.6164H101.878V11.8531H102.564C102.858 11.8531 103.151 11.7551 103.249 11.6572C103.347 11.5592 103.445 11.2653 103.445 10.9715V9.50208H105.404V11.8531H107.168V13.6164H105.209V18.9061H106.874V20.6694H105.404Z" fill="#212121"/>
    <path d="M112.359 20.8651C111.674 20.8651 111.184 20.7672 110.596 20.5713C110.106 20.3754 109.617 20.0815 109.323 19.6896C108.931 19.2978 108.735 18.808 108.539 18.2203C108.343 17.6325 108.245 17.0447 108.245 16.359C108.245 15.6733 108.343 15.0856 108.539 14.4978C108.735 13.9101 109.029 13.4203 109.323 13.0284C109.617 12.6366 110.106 12.3427 110.596 12.1468C111.086 11.9509 111.674 11.8529 112.261 11.8529C112.947 11.8529 113.535 11.9509 114.025 12.2447C114.514 12.4407 114.906 12.8325 115.298 13.2243C115.592 13.6162 115.886 14.106 115.984 14.5958C116.18 15.0856 116.18 15.6733 116.18 16.2611V16.9468H110.4V17.1427C110.4 17.7305 110.596 18.3182 110.89 18.6121C111.282 19.0039 111.772 19.1998 112.457 19.1998C112.947 19.1998 113.437 19.1019 113.731 18.906C114.025 18.71 114.417 18.4162 114.612 18.0243L115.788 19.2978C115.396 19.7876 114.906 20.1794 114.319 20.4733C113.829 20.6692 113.143 20.8651 112.359 20.8651ZM112.261 13.3223C111.674 13.3223 111.282 13.5182 110.89 13.9101C110.596 14.3019 110.4 14.7917 110.4 15.3794V15.4774H113.927V15.2815C113.927 14.6937 113.829 14.2039 113.437 13.8121C113.241 13.5182 112.849 13.3223 112.261 13.3223Z" fill="#212121"/>
    <path d="M118.14 8.32642H120.295V15.7713H120.393L121.568 14.204L123.527 11.9509H125.976L122.94 15.2815L126.27 20.5713H123.723L121.47 16.653L120.295 17.9264V20.5713H118.14V8.32642Z" fill="#212121"/>
    <path d="M64.6539 35.2652C64.458 35.755 64.1641 36.1468 63.6743 36.4407C63.2825 36.7346 62.6947 36.9305 62.2049 36.9305C61.1274 36.9305 60.2457 36.5387 59.658 35.755C59.0702 34.9713 58.7764 33.7958 58.7764 32.3264C58.7764 30.857 59.0702 29.7795 59.658 28.9958C60.2457 28.2121 61.1274 27.8203 62.2049 27.8203C62.7927 27.8203 63.2825 28.0162 63.6743 28.3101C64.0662 28.604 64.36 28.9958 64.556 29.4856H64.6539V24.3917H66.809V36.7346H64.6539V35.2652ZM62.7927 35.1672C63.2825 35.1672 63.7723 35.0693 64.0662 34.7754C64.458 34.5795 64.556 34.1876 64.556 33.6978V30.955C64.556 30.5631 64.36 30.1713 64.0662 29.9754C63.6743 29.6815 63.2825 29.5836 62.7927 29.5836C62.2049 29.5836 61.8131 29.7795 61.4213 30.1713C61.0294 30.5631 60.9315 31.0529 60.9315 31.6407V33.1101C60.9315 33.6978 61.1274 34.1876 61.4213 34.5795C61.7151 34.9713 62.2049 35.1672 62.7927 35.1672Z" fill="#212121"/>
    <path d="M69.2578 24.3917H71.4129V31.8366H71.5109L72.6864 30.2693L74.6456 28.0162H77.0945L74.0578 31.3468L77.3884 36.6366H74.8415L72.5884 32.7183L71.4129 33.9917V36.6366H69.2578V24.3917Z" fill="#212121"/>
</svg>
