<svg width="20" height="23" viewBox="0 0 20 23" fill="none" xmlns="http://www.w3.org/2000/svg">
<g clip-path="url(#clip0_15543_103906)">
<mask id="mask0_15543_103906" style="mask-type:luminance" maskUnits="userSpaceOnUse" x="0" y="0" width="20" height="23">
<path d="M9.98684 22.963H10.0128C10.0781 22.9609 10.1386 22.9435 10.1932 22.9154C10.1995 22.9126 10.2055 22.91 10.2116 22.9066L19.7878 17.3772C19.9189 17.3018 20 17.1616 20 17.0106V5.95253C20 5.80119 19.9189 5.66135 19.7878 5.58538L10.2116 0.0565302C10.0805 -0.0188434 9.91947 -0.0188434 9.78816 0.0565302L0.211639 5.58538C0.0805302 5.66135 0 5.80119 0 5.95253V17.0106C0 17.1616 0.0805302 17.3018 0.211639 17.3772L9.78816 22.9066C9.79411 22.91 9.79927 22.9136 9.80621 22.9162C9.86068 22.9444 9.9216 22.961 9.98684 22.963ZM10.4235 1.15718L18.729 5.95253L10 10.9922L1.27102 5.95253L9.57593 1.15718V6.9312C9.57593 7.16545 9.76575 7.35468 10 7.35468C10.2337 7.35468 10.4235 7.16545 10.4235 6.9312V1.15718ZM13.7623 13.8898C13.6449 14.0917 13.7147 14.3513 13.9172 14.4686L18.7232 17.0136L10.4235 21.806V11.7258L19.1525 6.68603V16.2829L14.3411 13.7345C14.138 13.6176 13.8791 13.6867 13.7623 13.8898ZM5.72556 13.6896L0.846954 16.2732V6.68603L9.57593 11.7258V21.806L1.26805 17.009L6.14944 14.4237C6.35215 14.3069 6.42118 14.0475 6.30435 13.8449C6.18752 13.6424 5.92867 13.5728 5.72556 13.6896Z" fill="white"/>
</mask>
<g mask="url(#mask0_15543_103906)">
<path fill-rule="evenodd" clip-rule="evenodd" d="M20 22.963H0V0H20V22.963Z" fill="white"/>
</g>
</g>
<defs>
<clipPath id="clip0_15543_103906">
<rect width="20" height="22.963" fill="white" transform="matrix(-1 0 0 1 20 0)"/>
</clipPath>
</defs>
</svg>
