<svg width="20" height="20" viewBox="0 0 20 20" fill="none" xmlns="http://www.w3.org/2000/svg">
<path fill-rule="evenodd" clip-rule="evenodd" d="M16.6673 6.65281C16.6673 2.99376 13.6673 0 10.0007 0C6.33399 0 3.33398 2.99376 3.33398 6.65281C3.33398 8.81497 4.33398 10.7277 5.91732 11.8919L5.00065 19.0437C4.91732 19.3763 5.08399 19.7089 5.33399 19.8753C5.58399 20.0416 5.91732 20.0416 6.25065 19.8753L10.0007 17.6299L13.7507 19.8753C13.834 19.9584 14.0007 19.9584 14.1673 19.9584C14.334 19.9584 14.5007 19.8753 14.584 19.7921C14.834 19.6258 15.0007 19.2931 14.9173 18.9605L14.0007 11.8919C15.6673 10.7277 16.6673 8.81497 16.6673 6.65281ZM5.00065 6.65281C5.00065 3.90853 7.25065 1.6632 10.0007 1.6632C12.7507 1.6632 15.0007 3.90853 15.0007 6.65281C15.0007 9.39709 12.7507 11.6424 10.0007 11.6424C7.25065 11.6424 5.00065 9.39709 5.00065 6.65281ZM10.4173 15.9667L13.084 17.5468L12.5007 12.8067C11.7507 13.1393 10.9173 13.3056 10.0007 13.3056C9.08399 13.3056 8.25065 13.1393 7.50065 12.8067L6.91732 17.5468L9.58399 15.9667C9.83399 15.8004 10.1673 15.8004 10.4173 15.9667Z" fill="#212529"/>
<mask id="mask0_31621_84192" style="mask-type:luminance" maskUnits="userSpaceOnUse" x="3" y="0" width="14" height="20">
<path fill-rule="evenodd" clip-rule="evenodd" d="M16.6673 6.65281C16.6673 2.99376 13.6673 0 10.0007 0C6.33399 0 3.33398 2.99376 3.33398 6.65281C3.33398 8.81497 4.33398 10.7277 5.91732 11.8919L5.00065 19.0437C4.91732 19.3763 5.08399 19.7089 5.33399 19.8753C5.58399 20.0416 5.91732 20.0416 6.25065 19.8753L10.0007 17.6299L13.7507 19.8753C13.834 19.9584 14.0007 19.9584 14.1673 19.9584C14.334 19.9584 14.5007 19.8753 14.584 19.7921C14.834 19.6258 15.0007 19.2931 14.9173 18.9605L14.0007 11.8919C15.6673 10.7277 16.6673 8.81497 16.6673 6.65281ZM5.00065 6.65281C5.00065 3.90853 7.25065 1.6632 10.0007 1.6632C12.7507 1.6632 15.0007 3.90853 15.0007 6.65281C15.0007 9.39709 12.7507 11.6424 10.0007 11.6424C7.25065 11.6424 5.00065 9.39709 5.00065 6.65281ZM10.4173 15.9667L13.084 17.5468L12.5007 12.8067C11.7507 13.1393 10.9173 13.3056 10.0007 13.3056C9.08399 13.3056 8.25065 13.1393 7.50065 12.8067L6.91732 17.5468L9.58399 15.9667C9.83399 15.8004 10.1673 15.8004 10.4173 15.9667Z" fill="white"/>
</mask>
<g mask="url(#mask0_31621_84192)">
<path fill-rule="evenodd" clip-rule="evenodd" d="M0 0H20V20H0V0Z" fill="#3333FF"/>
</g>
</svg>
