<svg width="24" height="24" viewBox="0 0 24 24" fill="none" xmlns="http://www.w3.org/2000/svg">
<circle cx="12" cy="12" r="12" fill="#3333FF"/>
<path d="M12 4C14.9333 4 17.334 6.39503 17.334 9.32227C17.334 11.052 16.5335 12.5823 15.2002 13.5137L15.9336 19.168C16.0003 19.4341 15.867 19.7009 15.667 19.834C15.6003 19.9004 15.4671 19.9667 15.334 19.9668C15.2007 19.9668 15.0667 19.9669 15 19.9004L12 18.1035L9 19.9004C8.73344 20.0333 8.46652 20.0334 8.2666 19.9004C8.06682 19.7674 7.93363 19.5012 8 19.2354L8.7334 13.5137C7.46679 12.5823 6.667 11.0519 6.66699 9.32227C6.66699 6.39514 9.06681 4.00018 12 4ZM14 14.2451C13.4001 14.5112 12.7333 14.6445 12 14.6445C11.2668 14.6445 10.5999 14.5112 10 14.2451L9.5332 18.0371L11.667 16.7734C11.867 16.6404 12.134 16.6404 12.334 16.7734L14.4668 18.0371L14 14.2451ZM12 5.33008C9.80015 5.33026 8 7.12695 8 9.32227C8.00001 11.5176 9.80015 13.3133 12 13.3135C14.2 13.3135 16 11.5177 16 9.32227C16 7.12684 14.2 5.33008 12 5.33008Z" fill="#212529"/>
<mask id="mask0_31253_106407" style="mask-type:luminance" maskUnits="userSpaceOnUse" x="6" y="4" width="12" height="16">
<path d="M12 4C14.9333 4 17.334 6.39503 17.334 9.32227C17.334 11.052 16.5335 12.5823 15.2002 13.5137L15.9336 19.168C16.0003 19.4341 15.867 19.7009 15.667 19.834C15.6003 19.9004 15.4671 19.9667 15.334 19.9668C15.2007 19.9668 15.0667 19.9669 15 19.9004L12 18.1035L9 19.9004C8.73344 20.0333 8.46652 20.0334 8.2666 19.9004C8.06682 19.7674 7.93363 19.5012 8 19.2354L8.7334 13.5137C7.46679 12.5823 6.667 11.0519 6.66699 9.32227C6.66699 6.39514 9.06681 4.00018 12 4ZM14 14.2451C13.4001 14.5112 12.7333 14.6445 12 14.6445C11.2668 14.6445 10.5999 14.5112 10 14.2451L9.5332 18.0371L11.667 16.7734C11.867 16.6404 12.134 16.6404 12.334 16.7734L14.4668 18.0371L14 14.2451ZM12 5.33008C9.80015 5.33026 8 7.12695 8 9.32227C8.00001 11.5176 9.80015 13.3133 12 13.3135C14.2 13.3135 16 11.5177 16 9.32227C16 7.12684 14.2 5.33008 12 5.33008Z" fill="white"/>
</mask>
<g mask="url(#mask0_31253_106407)">
<path fill-rule="evenodd" clip-rule="evenodd" d="M4 4H20V20H4V4Z" fill="white"/>
</g>
</svg>
