<svg xmlns="http://www.w3.org/2000/svg" xmlns:xlink="http://www.w3.org/1999/xlink" fill="#000000" height="800px" width="800px"  viewBox="0 0 459.739 459.739" xml:space="preserve" style="background-color:#fff">
<path d="M229.869,0C102.919,0,0,102.918,0,229.87s102.919,229.869,229.869,229.869c126.952,0,229.87-102.917,229.87-229.869  S356.821,0,229.869,0z M61.299,229.87c0-37.1,12.196-71.325,32.58-99.198L329.062,365.86  c-27.868,20.392-62.093,32.581-99.192,32.581C136.919,398.441,61.299,322.82,61.299,229.87z M369.138,324.683L135.048,90.601  c27.044-18.468,59.684-29.303,94.821-29.303c92.952,0,168.571,75.622,168.571,168.572  C398.44,265.009,387.607,297.649,369.138,324.683z"/>
        <path xmlns="http://www.w3.org/2000/svg" d="M229.869,0C102.919,0,0,102.918,0,229.87s102.919,229.869,229.869,229.869c126.952,0,229.87-102.917,229.87-229.869  S356.821,0,229.869,0z M61.299,229.87c0-37.1,12.196-71.325,32.58-99.198L329.062,365.86  c-27.868,20.392-62.093,32.581-99.192,32.581C136.919,398.441,61.299,322.82,61.299,229.87z M369.138,324.683L135.048,90.601  c27.044-18.468,59.684-29.303,94.821-29.303c92.952,0,168.571,75.622,168.571,168.572  C398.44,265.009,387.607,297.649,369.138,324.683z"/>
</svg>