<svg width="24" height="24" viewBox="0 0 24 24" fill="none" xmlns="http://www.w3.org/2000/svg">
<path d="M19.3568 21.4781L2.51855 4.6399C3.13446 3.84756 3.84752 3.13448 4.63985 2.51855L21.4781 19.3568C20.8622 20.1492 20.1491 20.8622 19.3568 21.4781Z" fill="#BA4D57"/>
<path fill-rule="evenodd" clip-rule="evenodd" d="M3 12C3 16.9706 7.02944 21 12 21C16.9706 21 21 16.9706 21 12C21 7.02944 16.9706 3 12 3C7.02944 3 3 7.02944 3 12ZM12 0C5.37258 0 0 5.37258 0 12C0 18.6274 5.37258 24 12 24C18.6274 24 24 18.6274 24 12C24 5.37258 18.6274 0 12 0Z" fill="#BA4D57"/>
</svg>
