<svg width="18" height="18" viewBox="0 0 18 18" fill="none" xmlns="http://www.w3.org/2000/svg">
<mask id="path-1-inside-1" fill="white">
<path fill-rule="evenodd" clip-rule="evenodd" d="M9 18C13.9706 18 18 13.9706 18 9C18 4.02944 13.9706 0 9 0C4.02944 0 0 4.02944 0 9C0 10.7048 0.47401 12.2989 1.29743 13.6577L0.117011 17.8604L4.30975 16.6828C5.6756 17.5184 7.28156 18 9 18Z"/>
</mask>
<path fill-rule="evenodd" clip-rule="evenodd" d="M9 18C13.9706 18 18 13.9706 18 9C18 4.02944 13.9706 0 9 0C4.02944 0 0 4.02944 0 9C0 10.7048 0.47401 12.2989 1.29743 13.6577L0.117011 17.8604L4.30975 16.6828C5.6756 17.5184 7.28156 18 9 18Z" fill="transparent"/>
<path d="M1.29743 13.6577L3.22292 14.1985L3.45753 13.3632L3.00787 12.6212L1.29743 13.6577ZM0.117011 17.8604L-1.80848 17.3196L-2.77175 20.7492L0.657831 19.7859L0.117011 17.8604ZM4.30975 16.6828L5.3535 14.9767L4.60909 14.5213L3.76893 14.7573L4.30975 16.6828ZM16 9C16 12.866 12.866 16 9 16V20C15.0751 20 20 15.0751 20 9H16ZM9 2C12.866 2 16 5.13401 16 9H20C20 2.92487 15.0751 -2 9 -2V2ZM2 9C2 5.13401 5.13401 2 9 2V-2C2.92487 -2 -2 2.92487 -2 9H2ZM3.00787 12.6212C2.36852 11.5661 2 10.3292 2 9H-2C-2 11.0805 -1.4205 13.0317 -0.413022 14.6942L3.00787 12.6212ZM2.0425 18.4012L3.22292 14.1985L-0.628066 13.1169L-1.80848 17.3196L2.0425 18.4012ZM3.76893 14.7573L-0.423809 15.9349L0.657831 19.7859L4.85057 18.6083L3.76893 14.7573ZM9 16C7.66027 16 6.41411 15.6256 5.3535 14.9767L3.266 18.3888C4.9371 19.4112 6.90284 20 9 20V16Z" fill="currentColor" mask="url(#path-1-inside-1)"/>
</svg>
