<svg width="16" height="16" viewBox="0 0 16 16" fill="none" xmlns="http://www.w3.org/2000/svg">
<path fill-rule="evenodd" clip-rule="evenodd" d="M11.7365 9.84799C11.938 9.7142 12.0724 9.58041 12.2068 9.44662L14.2225 7.43978C15.7678 5.9012 15.7006 3.2923 14.0209 1.82062C12.4755 0.282042 9.98954 0.282042 8.44419 1.82062L7.30197 2.95783C7.03322 3.22541 7.03322 3.62678 7.30197 3.89436C7.57073 4.16194 7.97387 4.16194 8.24262 3.89436L9.38484 2.75715C10.4599 1.75373 12.0724 1.75373 13.1474 2.75715C14.2225 3.76057 14.2225 5.43294 13.2146 6.50325L11.1989 8.51009C11.1318 8.64388 11.0646 8.71078 10.9302 8.77767C9.72078 9.6473 8.04105 9.44662 7.1676 8.24251C6.96603 7.97493 6.49571 7.90804 6.22695 8.10872C5.95819 8.30941 5.891 8.77767 6.09257 9.04525C6.89884 10.1156 8.10824 10.6507 9.31765 10.6507C10.1911 10.6507 10.9974 10.3831 11.7365 9.84799ZM6.49571 13.1927L7.63792 12.0555C7.90668 11.7879 8.377 11.8548 8.64576 12.1224C8.91451 12.39 8.91451 12.7914 8.64576 13.0589L7.50354 14.1961C6.69727 14.932 5.68944 15.3334 4.6816 15.3334C3.67376 15.3334 2.66593 14.932 1.85966 14.1961C0.314309 12.6576 0.24712 10.1156 1.79247 8.51009L3.80814 6.50325L4.21128 6.10188C5.08473 5.43294 6.15976 5.16536 7.1676 5.36604C8.17543 5.49983 9.11608 6.03499 9.78797 6.90462C9.98954 7.1722 9.92235 7.64046 9.65359 7.84115C9.38484 8.04183 8.91451 7.97493 8.71294 7.70736C8.30981 7.1053 7.70511 6.77083 6.96603 6.63704C6.22695 6.57015 5.55506 6.77083 4.95036 7.1722L4.6816 7.43978L2.66593 9.44662C1.65809 10.45 1.65809 12.1893 2.73312 13.1927C3.80814 14.1961 5.42068 14.1961 6.49571 13.1927Z" fill="#3333FF"/>
</svg>
