<svg width="16" height="16" viewBox="0 0 16 16" fill="none" xmlns="http://www.w3.org/2000/svg">
<ellipse cx="8" cy="8" rx="8" ry="8" transform="rotate(-90 8 8)" fill="#3333FF"/>
<path d="M8.05 4.572C7.67667 4.572 7.406 4.488 7.238 4.32C7.07933 4.152 7 3.93733 7 3.676V3.396C7 3.13467 7.07933 2.92 7.238 2.752C7.406 2.584 7.67667 2.5 8.05 2.5C8.414 2.5 8.68 2.584 8.848 2.752C9.016 2.92 9.1 3.13467 9.1 3.396V3.676C9.1 3.93733 9.016 4.152 8.848 4.32C8.68 4.488 8.414 4.572 8.05 4.572ZM7.154 5.636H8.946V12.944H7.154V5.636Z" fill="white"/>
</svg>
