<svg width="24" height="24" viewBox="0 0 24 24" fill="none" xmlns="http://www.w3.org/2000/svg">
<rect width="24" height="24" fill="#E5E5E5"/>
<rect width="1440" height="4914" transform="translate(-498 -2087)" fill="white"/>
<ellipse cx="12" cy="12" rx="12" ry="12" transform="rotate(-90 12 12)" fill="#3333FF"/>
<path d="M12.32 13.92L11.662 9.944V7.228H13.846V9.944L13.202 13.92H12.32ZM12.74 17.168C12.292 17.168 11.97 17.0653 11.774 16.86C11.5873 16.6547 11.494 16.4027 11.494 16.104V15.768C11.494 15.4693 11.5873 15.2173 11.774 15.012C11.97 14.8067 12.292 14.704 12.74 14.704C13.188 14.704 13.5053 14.8067 13.692 15.012C13.888 15.2173 13.986 15.4693 13.986 15.768V16.104C13.986 16.4027 13.888 16.6547 13.692 16.86C13.5053 17.0653 13.188 17.168 12.74 17.168Z" fill="white"/>
</svg>
