<svg width="24" height="24" viewBox="0 0 24 24" fill="none" xmlns="http://www.w3.org/2000/svg">
<path fill-rule="evenodd" clip-rule="evenodd" d="M14.1827 2.31565C15.113 1.57179 16.3294 1.17259 17.5814 1.20022C18.2625 1.18497 18.9402 1.28895 19.5759 1.50621C20.2115 1.72347 20.7927 2.04974 21.2861 2.46638C21.7727 2.85873 22.1593 3.33867 22.4201 3.87413C22.681 4.4096 22.81 4.98826 22.7985 5.57147C22.7433 6.57963 22.448 7.56598 21.9318 8.46554C21.2322 9.75435 20.3775 10.9723 19.3828 12.0982L18.5841 13.0177C16.2409 15.7451 14.5096 18.0364 13.3902 19.8917C12.7072 21.0235 12.252 21.993 12.0245 22.8002C11.7788 21.9848 11.316 21.0168 10.6361 19.8964C9.49802 18.0207 7.75162 15.7178 5.39694 12.9875L4.59824 12.1283C3.60837 11.0053 2.76466 9.7867 2.08317 8.49569C1.55247 7.58951 1.25091 6.5916 1.19949 5.57147C1.19238 4.98882 1.32333 4.41133 1.58387 3.87643C1.84442 3.34153 2.22874 2.86114 2.71194 2.46638C3.72186 1.62457 5.0651 1.16965 6.45056 1.20022C7.70293 1.17104 8.91995 1.57045 9.8493 2.31565C10.1032 2.54242 10.3394 2.78271 10.557 3.03482C11.241 3.82736 11.7402 4.7367 12.0209 5.70986H12.0279C12.2999 4.73499 12.7949 3.82378 13.4781 3.03123C13.6944 2.78022 13.9297 2.54111 14.1827 2.31565ZM14.3387 6.35814L14.5788 5.70986H14.5768C14.8344 5.14953 15.2193 4.61899 15.7278 4.15402C16.1913 3.80198 16.8313 3.58426 17.5285 3.59964L17.5818 3.60082L17.6352 3.59962C18.0382 3.5906 18.4347 3.6525 18.7997 3.77723C19.1645 3.90193 19.4814 4.08367 19.7377 4.30007L19.7585 4.31763L19.7797 4.33472C20.0057 4.51698 20.1637 4.72231 20.2625 4.92509C20.3545 5.11406 20.3974 5.30464 20.3992 5.48864C20.3584 6.09616 20.1764 6.70253 19.8501 7.27117L19.8361 7.29568L19.8226 7.32051C19.2115 8.44618 18.4619 9.5157 17.5842 10.5091L17.5775 10.5167L16.7722 11.4438L16.7636 11.4537C14.8414 13.6912 13.2862 15.6831 12.1214 17.4202C12.084 17.4759 12.047 17.5315 12.0102 17.587C11.9619 17.5143 11.913 17.4414 11.8637 17.3683C10.6885 15.6284 9.13135 13.6428 7.21439 11.4201L7.18518 11.3862L6.37837 10.5183C5.51952 9.54038 4.79173 8.48565 4.2056 7.37531L4.1809 7.3285L4.15416 7.28284C3.82206 6.71577 3.63832 6.10957 3.59944 5.5028C3.60289 5.31446 3.64776 5.1199 3.74153 4.92739C3.84255 4.71999 4.00277 4.51091 4.23036 4.32498L4.23952 4.3175L4.2486 4.30992C4.78767 3.86059 5.55766 3.58111 6.39761 3.59964L6.45204 3.60084L6.50646 3.59957C7.20213 3.58336 7.84064 3.80077 8.302 4.15215C8.81088 4.61826 9.1994 5.14885 9.46363 5.70986H9.45859L9.71415 6.3722C9.71519 6.37579 9.71622 6.37938 9.71725 6.38297L9.96667 7.02668C10.056 7.25808 10.2784 7.41069 10.5265 7.41069H13.5313C13.7822 7.41069 14.0067 7.25446 14.0939 7.0191L14.3371 6.36259L14.3387 6.35814Z" fill="#212121"/>
</svg>
