<svg width="24" height="24" viewBox="0 0 24 24" fill="none" xmlns="http://www.w3.org/2000/svg">
<path fill-rule="evenodd" clip-rule="evenodd" d="M16.8975 2C18.5354 2 20.077 2.69307 21.2332 3.88119C22.4857 5.06931 23.1602 6.75248 22.9675 8.43564C22.9675 10.1188 22.293 11.802 21.1369 12.9901L12.6582 21.703C12.4655 21.901 12.2728 22 11.9837 22C11.6947 22 11.502 21.901 11.3093 21.703L2.83062 12.9901C1.67444 11.802 1 10.1188 1 8.43564C1 6.75248 1.67444 5.06931 2.92697 3.88119C5.33569 1.40594 9.28598 1.40594 11.6947 3.88119L12.0801 4.27723L12.4655 3.88119C13.6217 2.69307 15.2596 2 16.8975 2ZM12.08 19.6237L19.8842 11.6039C20.7514 10.7128 21.2331 9.62374 21.2331 8.43562C21.2331 7.2475 20.7514 6.15839 19.9806 5.2673C19.1135 4.47523 18.0536 3.98018 16.8974 3.98018C15.6449 3.98018 14.5851 4.47523 13.7179 5.2673L12.7544 6.35641C12.3691 6.75245 11.791 6.75245 11.4056 6.35641L10.3457 5.2673C9.4786 4.37622 8.41876 3.98018 7.26258 3.98018C6.20275 3.98018 5.04656 4.37622 4.27577 5.2673C3.50499 6.15839 3.02324 7.2475 3.02324 8.43562C3.02324 9.62374 3.40864 10.7128 4.27577 11.6039L12.08 19.6237Z" fill="#3333FF"/>
</svg>
