<svg width="24" height="24" viewBox="0 0 24 24" fill="none" xmlns="http://www.w3.org/2000/svg">
<path d="M21.2332 3.88119C20.077 2.69307 18.5354 2 16.8975 2C15.2596 2 13.6217 2.69307 12.4655 3.88119L12.0801 4.27723L11.6947 3.88119C9.28598 1.40594 5.33569 1.40594 2.92697 3.88119C1.67444 5.06931 1 6.75248 1 8.43564C1 10.1188 1.67444 11.802 2.83062 12.9901L11.3093 21.703C11.502 21.901 11.6947 22 11.9837 22C12.2728 22 12.4655 21.901 12.6582 21.703L21.1369 12.9901C22.293 11.802 22.9675 10.1188 22.9675 8.43564C23.1602 6.75248 22.4857 5.06931 21.2332 3.88119Z" fill="#3333FF"/>
</svg>
