<svg width="24" height="24" viewBox="0 0 24 24" fill="none" xmlns="http://www.w3.org/2000/svg">
<path d="M12.0245 5.72221C12.3813 4.43374 13.1275 3.25597 14.1827 2.31565C15.113 1.57179 16.3294 1.17259 17.5814 1.20022C18.2625 1.18497 18.9402 1.28895 19.5759 1.50621C20.2115 1.72347 20.7927 2.04974 21.2861 2.46638C21.7727 2.85873 22.1593 3.33867 22.4201 3.87413C22.681 4.4096 22.81 4.98826 22.7985 5.57147C22.7433 6.57963 22.448 7.56598 21.9318 8.46554C21.2322 9.75435 20.3775 10.9723 19.3828 12.0982L18.5841 13.0177C14.8115 17.409 12.6249 20.6699 12.0245 22.8002C11.3674 20.6196 9.15822 17.3487 5.39694 12.9875L4.59824 12.1283C3.60837 11.0053 2.76466 9.7867 2.08317 8.49569C1.55247 7.58951 1.25091 6.5916 1.19949 5.57147C1.19238 4.98882 1.32333 4.41133 1.58387 3.87643C1.84442 3.34153 2.22874 2.86114 2.71194 2.46638C3.72186 1.62457 5.0651 1.16965 6.45056 1.20022C7.70293 1.17104 8.91995 1.57045 9.8493 2.31565C10.9046 3.2583 11.6558 4.43464 12.0245 5.72221Z" fill="#3333FF"/>
</svg>
