<?xml version="1.0" encoding="utf-8"?>
<!-- Svg Vector Icons : http://www.onlinewebfonts.com/icon -->
<!DOCTYPE svg PUBLIC "-//W3C//DTD SVG 1.1//EN" "http://www.w3.org/Graphics/SVG/1.1/DTD/svg11.dtd">
<svg version="1.1" xmlns="http://www.w3.org/2000/svg" xmlns:xlink="http://www.w3.org/1999/xlink" x="0px" y="0px" viewBox="0 0 1000 1000" enable-background="new 0 0 1000 1000" xml:space="preserve">
<metadata> Svg Vector Icons : http://www.onlinewebfonts.com/icon </metadata>
<g><g transform="translate(0.000000,511.000000) scale(0.100000,-0.100000)"><path d="M5052.9,4515.9C3142.7,4318.5,1569.6,2916,1161.5,1044l-53.6-245.2H646.1c-387,0-467.5-5.7-503.9-30.7c-23-15.3-42.2-46-42.2-65.1c0-32.6,1115.1-1408.3,1195.6-1473.4c59.4-47.9,159-36.4,222.3,28.7C1625.2-632.5,2610,635.9,2623.4,681.9c7.7,34.5,0,55.6-32.6,82.4c-38.3,30.6-84.3,34.5-442.6,34.5c-461.8,0-421.5-23-364,220.3c320,1325.9,1389.1,2418,2709.3,2768.7c375.5,99.6,559.5,122.6,990.6,122.6c408.1,0,603.5-23,927.4-105.4c1226.3-312.3,2218.8-1209,2651.8-2393.1c387.1-1057.7,279.8-2255.2-289.3-3224.7c-737.7-1251.2-2136.4-1988.8-3554.2-1875.8c-881.4,70.9-1642,394.7-2299.2,979.1c-228,203.1-281.7,229.9-419.6,203.1c-93.9-17.2-208.8-132.2-226.1-226.1c-28.7-147.5-1.9-201.2,182-379.4C3079.4-3719.2,3934-4127.3,4870.9-4271c306.6-47.9,942.7-47.9,1245.4,0c1442.8,224.2,2655.6,1096,3312.8,2383.5c212.7,419.6,360.2,881.4,434.9,1364.2c47.9,306.6,47.9,958,0,1264.6c-228,1473.4-1126.6,2697.8-2454.4,3343.5c-607.4,297-1141.9,425.4-1829.8,440.7C5384.4,4529.3,5148.7,4525.5,5052.9,4515.9z"/><path d="M5330.8,2960.1c-34.5-24.9-82.4-69-103.5-97.7c-40.2-53.7-40.2-63.2-40.2-1460c0-1389.1,0-1406.4,40.2-1458.1c21.1-28.7,63.2-70.9,92-92C5371-188,5390.1-188,6622.2-188h1251.2l67.1,51.7c180.1,136,157.1,410-42.2,515.4c-61.3,34.5-130.3,36.4-1086.4,36.4H5790.6l-3.8,1195.6c-5.7,1180.3-5.7,1197.5-46,1251.2c-67.1,92-157.1,139.9-256.8,139.9C5422.7,3002.2,5374.8,2988.8,5330.8,2960.1z"/></g></g>
</svg>