<svg width="auto" height="49" viewBox="0 0 157 49" fill="none" xmlns="http://www.w3.org/2000/svg">
<path d="M45.83 29.68C45.3051 28.3133 44.5168 27.0629 43.51 26C42.5892 24.9789 41.4652 24.1614 40.21 23.6C39.5033 23.231 38.7634 22.9297 38 22.7C39.6811 22.0032 41.1746 20.9207 42.36 19.54C44.1127 17.3308 44.995 14.5558 44.84 11.74C44.9236 10.158 44.6709 8.57632 44.0986 7.09912C43.5264 5.62192 42.6475 4.28279 41.52 3.17C39.32 1.07 36.28 0 32.44 0H0V3.34H4.85V44.66H0V48H34.13C35.8318 48.0722 37.5296 47.7834 39.1118 47.1526C40.694 46.5218 42.1247 45.5633 43.31 44.34C45.59 41.93 46.74 38.64 46.74 34.58C46.7728 32.9018 46.4632 31.2345 45.83 29.68ZM33.05 19.54C34.69 17.66 35.52 15.04 35.52 11.74C35.5937 10.236 35.3663 8.73238 34.8511 7.31741C34.3359 5.90245 33.5434 4.6046 32.52 3.5C33.4446 3.49457 34.3606 3.67803 35.2117 4.03913C36.0629 4.40024 36.8314 4.93138 37.47 5.6C38.1329 6.31818 38.6522 7.1566 39 8.07C39.5426 9.43451 39.8144 10.8916 39.8 12.36C39.7842 13.7541 39.5131 15.1336 39 16.43C38.6828 17.4461 38.1431 18.3788 37.42 19.16C36.18 20.57 34.26 21.29 31.73 21.29H31.12C31.8207 20.7732 32.4673 20.1869 33.05 19.54ZM20.05 3.47H22.5C23.5476 3.39148 24.5998 3.54126 25.5839 3.90901C26.568 4.27675 27.4606 4.85369 28.2 5.6C28.709 6.1601 29.1304 6.79393 29.45 7.48C30.1663 9.00574 30.5254 10.6747 30.5 12.36C30.5153 13.8637 30.2333 15.3557 29.67 16.75C29.3369 17.6413 28.8343 18.4597 28.19 19.16C27 20.57 25 21.29 22.51 21.29H20.06L20.05 3.47ZM15 44.53H10V24.76H15V44.53ZM15 21.29H10V3.47H15V21.29ZM31 40.68C30.7282 41.1786 30.392 41.6392 30 42.05C29.2497 42.8357 28.3483 43.4615 27.35 43.89C26.158 44.3362 24.8925 44.5534 23.62 44.53H20.06V24.76H23.58C24.8584 24.7324 26.1286 24.9708 27.31 25.46C28.3239 25.8488 29.2417 26.4527 30 27.23C30.2191 27.4605 30.4197 27.708 30.6 27.97C31.9223 29.9301 32.5941 32.2567 32.52 34.62C32.5616 36.7393 32.0369 38.8313 31 40.68ZM40.69 39.76C40.3664 40.6089 39.8807 41.3867 39.26 42.05C38.5041 42.8336 37.5999 43.4591 36.6 43.89C35.7438 44.2166 34.8441 44.4154 33.93 44.48L34.07 44.34C36.35 41.92 37.51 38.64 37.51 34.58C37.5428 32.9018 37.2332 31.2345 36.6 29.68C36.0661 28.3108 35.2676 27.0603 34.25 26C33.8501 25.5616 33.4117 25.16 32.94 24.8C34.1851 24.7828 35.4206 25.021 36.57 25.5C37.5726 25.8938 38.4796 26.4972 39.23 27.27C39.8022 27.8835 40.2595 28.5948 40.58 29.37C41.3452 31.0274 41.7312 32.8346 41.71 34.66C41.7213 36.4148 41.3635 38.1524 40.66 39.76H40.69Z" fill="#3333FF"/>
<path d="M65.585 15.985H60.638V21H58.394V9.134H60.638V13.996H65.585V9.134H67.829V21H65.585V15.985ZM70.6767 12.126H72.8527V22.071C72.8527 22.819 72.6657 23.3913 72.2918 23.788C71.9177 24.196 71.3227 24.4 70.5067 24.4H69.3167V22.666H70.6767V12.126ZM71.7648 10.834C71.3114 10.834 70.9827 10.732 70.7787 10.528C70.5861 10.324 70.4897 10.0633 70.4897 9.746V9.406C70.4897 9.08867 70.5861 8.828 70.7787 8.624C70.9827 8.42 71.3114 8.318 71.7648 8.318C72.2067 8.318 72.5297 8.42 72.7337 8.624C72.9378 8.828 73.0398 9.08867 73.0398 9.406V9.746C73.0398 10.0633 72.9378 10.324 72.7337 10.528C72.5297 10.732 72.2067 10.834 71.7648 10.834ZM78.856 17.107C78.312 17.1183 77.8927 17.2203 77.598 17.413C77.3033 17.5943 77.156 17.8663 77.156 18.229V18.501C77.156 18.8637 77.2693 19.1413 77.496 19.334C77.7227 19.5267 78.0627 19.623 78.516 19.623C78.992 19.623 79.4 19.5153 79.74 19.3C80.08 19.0847 80.25 18.7673 80.25 18.348V17.107H78.856ZM86.081 15.764V15.611C86.081 14.999 85.928 14.506 85.622 14.132C85.3273 13.7467 84.8967 13.554 84.33 13.554C83.752 13.554 83.293 13.7467 82.953 14.132C82.613 14.5173 82.443 15.016 82.443 15.628V15.764H86.081ZM84.636 19.436C85.1687 19.436 85.6163 19.3227 85.979 19.096C86.3417 18.8693 86.6477 18.5917 86.897 18.263L88.07 19.572C87.7073 20.082 87.2143 20.4843 86.591 20.779C85.9677 21.0623 85.2537 21.204 84.449 21.204C84.0183 21.204 83.616 21.153 83.242 21.051C82.868 20.949 82.5337 20.813 82.239 20.643C81.9557 20.473 81.712 20.2803 81.508 20.065C81.304 19.8497 81.151 19.623 81.049 19.385H80.947C80.8677 19.6117 80.743 19.8327 80.573 20.048C80.4143 20.2633 80.2047 20.456 79.944 20.626C79.6833 20.796 79.3717 20.932 79.009 21.034C78.6577 21.1473 78.244 21.204 77.768 21.204C76.8727 21.204 76.1757 20.9603 75.677 20.473C75.1897 19.9857 74.946 19.351 74.946 18.569C74.946 18.1043 75.0367 17.6963 75.218 17.345C75.3993 16.9937 75.6543 16.7047 75.983 16.478C76.3117 16.24 76.7083 16.0643 77.173 15.951C77.6377 15.8263 78.159 15.764 78.737 15.764H80.25V15.22C80.25 14.7213 80.1197 14.336 79.859 14.064C79.5983 13.792 79.1847 13.656 78.618 13.656C78.0967 13.656 77.6773 13.7637 77.36 13.979C77.054 14.1943 76.7933 14.4607 76.578 14.778L75.286 13.622C75.6147 13.112 76.051 12.704 76.595 12.398C77.139 12.0807 77.8587 11.922 78.754 11.922C79.434 11.922 79.978 12.0637 80.386 12.347C80.794 12.619 81.1113 12.9647 81.338 13.384H81.44C81.6667 12.9647 82.035 12.619 82.545 12.347C83.055 12.0637 83.667 11.922 84.381 11.922C85.0723 11.922 85.6673 12.041 86.166 12.279C86.6647 12.517 87.0727 12.84 87.39 13.248C87.7187 13.656 87.9567 14.132 88.104 14.676C88.2627 15.2087 88.342 15.781 88.342 16.393V17.107H82.426V17.328C82.426 17.9627 82.6187 18.4727 83.004 18.858C83.3893 19.2433 83.9333 19.436 84.636 19.436ZM92.6434 21C91.8954 21 91.3457 20.813 90.9944 20.439C90.643 20.065 90.4674 19.538 90.4674 18.858V8.42H92.6434V19.266H93.8164V21H92.6434ZM95.6644 12.126H97.8404V13.588H97.9084C98.0671 13.078 98.3674 12.6757 98.8094 12.381C99.2514 12.075 99.7671 11.922 100.356 11.922C101.49 11.922 102.351 12.3243 102.94 13.129C103.541 13.9223 103.841 15.0613 103.841 16.546C103.841 18.042 103.541 19.1923 102.94 19.997C102.351 20.8017 101.49 21.204 100.356 21.204C99.7671 21.204 99.2514 21.051 98.8094 20.745C98.3788 20.439 98.0784 20.031 97.9084 19.521H97.8404V24.4H95.6644V12.126ZM99.6594 19.402C100.226 19.402 100.685 19.215 101.036 18.841C101.388 18.467 101.563 17.9627 101.563 17.328V15.798C101.563 15.1633 101.388 14.659 101.036 14.285C100.685 13.8997 100.226 13.707 99.6594 13.707C99.1381 13.707 98.7018 13.8373 98.3504 14.098C98.0104 14.3587 97.8404 14.7043 97.8404 15.135V17.957C97.8404 18.4217 98.0104 18.7787 98.3504 19.028C98.7018 19.2773 99.1381 19.402 99.6594 19.402ZM117.313 19.912C117.143 20.0593 116.951 20.2123 116.735 20.371C116.52 20.5183 116.271 20.6543 115.987 20.779C115.715 20.9037 115.404 21.0057 115.052 21.085C114.712 21.1643 114.327 21.204 113.896 21.204C113.262 21.204 112.695 21.119 112.196 20.949C111.709 20.779 111.301 20.5467 110.972 20.252C110.644 19.9573 110.394 19.6117 110.224 19.215C110.054 18.807 109.969 18.3707 109.969 17.906C109.969 17.4867 110.032 17.1183 110.156 16.801C110.281 16.4723 110.451 16.1777 110.666 15.917C110.882 15.645 111.137 15.407 111.431 15.203C111.726 14.9877 112.038 14.7837 112.366 14.591C112.015 14.1943 111.703 13.7637 111.431 13.299C111.171 12.823 111.04 12.313 111.04 11.769C111.04 11.3837 111.12 11.021 111.278 10.681C111.437 10.3297 111.664 10.0237 111.958 9.763C112.264 9.50233 112.627 9.29833 113.046 9.151C113.466 9.00367 113.936 8.93 114.457 8.93C114.922 8.93 115.353 8.99233 115.749 9.117C116.146 9.24167 116.486 9.41733 116.769 9.644C117.064 9.87067 117.291 10.1483 117.449 10.477C117.619 10.8057 117.704 11.1797 117.704 11.599C117.704 11.973 117.636 12.3187 117.5 12.636C117.376 12.942 117.2 13.2253 116.973 13.486C116.747 13.7353 116.486 13.9733 116.191 14.2C115.897 14.4153 115.579 14.6193 115.239 14.812L117.313 17.056C117.472 16.6707 117.591 16.2627 117.67 15.832C117.761 15.4013 117.818 14.9707 117.84 14.54H120.509V16.359H119.404C119.234 17.1297 118.974 17.8323 118.622 18.467L120.968 21H118.299L117.313 19.912ZM114.389 10.613C114.027 10.613 113.726 10.7207 113.488 10.936C113.25 11.14 113.131 11.4177 113.131 11.769V11.888C113.131 12.1487 113.211 12.4093 113.369 12.67C113.539 12.9193 113.8 13.2423 114.151 13.639C114.582 13.3783 114.933 13.1063 115.205 12.823C115.489 12.5397 115.63 12.211 115.63 11.837V11.735C115.63 11.3723 115.506 11.0947 115.256 10.902C115.018 10.7093 114.729 10.613 114.389 10.613ZM114.185 19.385C114.593 19.385 114.962 19.3227 115.29 19.198C115.619 19.0733 115.908 18.9033 116.157 18.688L113.454 15.764C113.058 16.002 112.746 16.257 112.519 16.529C112.304 16.7897 112.196 17.124 112.196 17.532V17.719C112.196 18.2177 112.366 18.62 112.706 18.926C113.046 19.232 113.539 19.385 114.185 19.385ZM60.162 37L57.204 28.126H59.346L60.587 31.951L61.454 35.113H61.573L62.44 31.951L63.647 28.126H65.721L62.746 37H60.162ZM70.8272 37.204C70.1699 37.204 69.5806 37.0963 69.0592 36.881C68.5492 36.6543 68.1129 36.3427 67.7502 35.946C67.3989 35.538 67.1269 35.0507 66.9342 34.484C66.7416 33.906 66.6452 33.26 66.6452 32.546C66.6452 31.8433 66.7359 31.2087 66.9172 30.642C67.1099 30.0753 67.3819 29.5937 67.7332 29.197C68.0846 28.789 68.5152 28.4773 69.0252 28.262C69.5352 28.0353 70.1132 27.922 70.7592 27.922C71.4506 27.922 72.0512 28.041 72.5612 28.279C73.0712 28.517 73.4906 28.84 73.8192 29.248C74.1479 29.656 74.3916 30.132 74.5502 30.676C74.7202 31.2087 74.8052 31.781 74.8052 32.393V33.107H68.9062V33.328C68.9062 33.974 69.0876 34.4953 69.4502 34.892C69.8129 35.2773 70.3512 35.47 71.0652 35.47C71.6092 35.47 72.0512 35.3567 72.3912 35.13C72.7426 34.9033 73.0542 34.6143 73.3262 34.263L74.4992 35.572C74.1366 36.082 73.6379 36.4843 73.0032 36.779C72.3799 37.0623 71.6546 37.204 70.8272 37.204ZM70.7932 29.554C70.2152 29.554 69.7562 29.7467 69.4162 30.132C69.0762 30.5173 68.9062 31.016 68.9062 31.628V31.764H72.5442V31.611C72.5442 30.999 72.3912 30.506 72.0852 30.132C71.7906 29.7467 71.3599 29.554 70.7932 29.554ZM76.9197 28.126H79.0957V38.071C79.0957 38.819 78.9087 39.3913 78.5347 39.788C78.1607 40.196 77.5657 40.4 76.7497 40.4H75.5597V38.666H76.9197V28.126ZM78.0077 26.834C77.5544 26.834 77.2257 26.732 77.0217 26.528C76.8291 26.324 76.7327 26.0633 76.7327 25.746V25.406C76.7327 25.0887 76.8291 24.828 77.0217 24.624C77.2257 24.42 77.5544 24.318 78.0077 24.318C78.4497 24.318 78.7727 24.42 78.9767 24.624C79.1807 24.828 79.2827 25.0887 79.2827 25.406V25.746C79.2827 26.0633 79.1807 26.324 78.9767 26.528C78.7727 26.732 78.4497 26.834 78.0077 26.834ZM83.994 37C83.246 37 82.6963 36.813 82.345 36.439C81.9936 36.065 81.818 35.538 81.818 34.858V24.42H83.994V35.266H85.167V37H83.994ZM90.602 37.204C89.9447 37.204 89.3554 37.0963 88.834 36.881C88.324 36.6543 87.8877 36.3427 87.525 35.946C87.1737 35.538 86.9017 35.0507 86.709 34.484C86.5164 33.906 86.42 33.26 86.42 32.546C86.42 31.8433 86.5107 31.2087 86.692 30.642C86.8847 30.0753 87.1567 29.5937 87.508 29.197C87.8594 28.789 88.29 28.4773 88.8 28.262C89.31 28.0353 89.888 27.922 90.534 27.922C91.2254 27.922 91.826 28.041 92.336 28.279C92.846 28.517 93.2654 28.84 93.594 29.248C93.9227 29.656 94.1664 30.132 94.325 30.676C94.495 31.2087 94.58 31.781 94.58 32.393V33.107H88.681V33.328C88.681 33.974 88.8624 34.4953 89.225 34.892C89.5877 35.2773 90.126 35.47 90.84 35.47C91.384 35.47 91.826 35.3567 92.166 35.13C92.5174 34.9033 92.829 34.6143 93.101 34.263L94.274 35.572C93.9114 36.082 93.4127 36.4843 92.778 36.779C92.1547 37.0623 91.4294 37.204 90.602 37.204ZM90.568 29.554C89.99 29.554 89.531 29.7467 89.191 30.132C88.851 30.5173 88.681 31.016 88.681 31.628V31.764H92.319V31.611C92.319 30.999 92.166 30.506 91.86 30.132C91.5654 29.7467 91.1347 29.554 90.568 29.554ZM102.203 35.521H102.118C101.959 36.031 101.659 36.439 101.217 36.745C100.775 37.051 100.259 37.204 99.6695 37.204C98.5475 37.204 97.6862 36.8017 97.0855 35.997C96.4962 35.1923 96.2015 34.042 96.2015 32.546C96.2015 31.0613 96.4962 29.9223 97.0855 29.129C97.6862 28.3243 98.5475 27.922 99.6695 27.922C100.259 27.922 100.775 28.075 101.217 28.381C101.659 28.6757 101.959 29.078 102.118 29.588H102.203V24.42H104.379V37H102.203V35.521ZM100.367 35.402C100.888 35.402 101.324 35.2773 101.676 35.028C102.027 34.7787 102.203 34.4217 102.203 33.957V31.135C102.203 30.7043 102.027 30.3587 101.676 30.098C101.324 29.8373 100.888 29.707 100.367 29.707C99.7999 29.707 99.3409 29.8997 98.9895 30.285C98.6495 30.659 98.4795 31.1633 98.4795 31.798V33.328C98.4795 33.9627 98.6495 34.467 98.9895 34.841C99.3409 35.215 99.7999 35.402 100.367 35.402ZM107.088 37V28.126H109.264V29.605H109.349C109.53 29.129 109.814 28.7323 110.199 28.415C110.596 28.0863 111.14 27.922 111.831 27.922C112.749 27.922 113.452 28.2223 113.939 28.823C114.426 29.4237 114.67 30.2793 114.67 31.39V37H112.494V31.611C112.494 30.9763 112.381 30.5003 112.154 30.183C111.927 29.8657 111.553 29.707 111.032 29.707C110.805 29.707 110.584 29.741 110.369 29.809C110.165 29.8657 109.978 29.9563 109.808 30.081C109.649 30.1943 109.519 30.3417 109.417 30.523C109.315 30.693 109.264 30.897 109.264 31.135V37H107.088ZM118.37 26.834C117.917 26.834 117.588 26.732 117.384 26.528C117.191 26.324 117.095 26.0633 117.095 25.746V25.406C117.095 25.0887 117.191 24.828 117.384 24.624C117.588 24.42 117.917 24.318 118.37 24.318C118.812 24.318 119.135 24.42 119.339 24.624C119.543 24.828 119.645 25.0887 119.645 25.406V25.746C119.645 26.0633 119.543 26.324 119.339 26.528C119.135 26.732 118.812 26.834 118.37 26.834ZM117.282 28.126H119.458V37H117.282V28.126ZM122.18 37V28.126H124.356V29.605H124.441C124.623 29.129 124.906 28.7323 125.291 28.415C125.688 28.0863 126.232 27.922 126.923 27.922C127.841 27.922 128.544 28.2223 129.031 28.823C129.519 29.4237 129.762 30.2793 129.762 31.39V37H127.586V31.611C127.586 30.9763 127.473 30.5003 127.246 30.183C127.02 29.8657 126.646 29.707 126.124 29.707C125.898 29.707 125.677 29.741 125.461 29.809C125.257 29.8657 125.07 29.9563 124.9 30.081C124.742 30.1943 124.611 30.3417 124.509 30.523C124.407 30.693 124.356 30.897 124.356 31.135V37H122.18ZM140.381 37.748C140.381 38.2127 140.296 38.6207 140.126 38.972C139.968 39.3347 139.701 39.635 139.327 39.873C138.953 40.111 138.472 40.2923 137.882 40.417C137.293 40.5417 136.573 40.604 135.723 40.604C134.975 40.604 134.341 40.553 133.819 40.451C133.298 40.3603 132.867 40.2243 132.527 40.043C132.199 39.873 131.961 39.6577 131.813 39.397C131.666 39.1363 131.592 38.8417 131.592 38.513C131.592 38.0143 131.728 37.6233 132 37.34C132.284 37.068 132.675 36.8923 133.173 36.813V36.626C132.811 36.5353 132.527 36.3597 132.323 36.099C132.131 35.827 132.034 35.5097 132.034 35.147C132.034 34.9203 132.08 34.722 132.17 34.552C132.261 34.3707 132.38 34.2177 132.527 34.093C132.686 33.9683 132.862 33.8663 133.054 33.787C133.247 33.6963 133.451 33.6283 133.666 33.583V33.515C133.122 33.2657 132.714 32.92 132.442 32.478C132.182 32.036 132.051 31.5203 132.051 30.931C132.051 30.0243 132.363 29.299 132.986 28.755C133.61 28.1997 134.522 27.922 135.723 27.922C135.995 27.922 136.262 27.939 136.522 27.973C136.794 28.007 137.044 28.0637 137.27 28.143V27.854C137.27 26.9927 137.69 26.562 138.528 26.562H139.905V28.228H138.018V28.466C138.483 28.7267 138.829 29.0667 139.055 29.486C139.282 29.9053 139.395 30.387 139.395 30.931C139.395 31.8263 139.084 32.546 138.46 33.09C137.848 33.634 136.936 33.906 135.723 33.906C135.202 33.906 134.749 33.855 134.363 33.753C134.193 33.8323 134.046 33.94 133.921 34.076C133.797 34.2007 133.734 34.3593 133.734 34.552C133.734 34.994 134.12 35.215 134.89 35.215H137.27C138.358 35.215 139.146 35.4417 139.633 35.895C140.132 36.337 140.381 36.9547 140.381 37.748ZM138.341 38.003C138.341 37.7197 138.228 37.4987 138.001 37.34C137.775 37.1813 137.384 37.102 136.828 37.102H133.802C133.496 37.3287 133.343 37.6347 133.343 38.02C133.343 38.36 133.485 38.6263 133.768 38.819C134.052 39.0117 134.533 39.108 135.213 39.108H136.301C137.015 39.108 137.531 39.0173 137.848 38.836C138.177 38.6547 138.341 38.377 138.341 38.003ZM135.723 32.427C136.789 32.427 137.321 31.9737 137.321 31.067V30.778C137.321 29.8713 136.789 29.418 135.723 29.418C134.658 29.418 134.125 29.8713 134.125 30.778V31.067C134.125 31.9737 134.658 32.427 135.723 32.427ZM145.325 37.204C144.668 37.204 144.079 37.0963 143.557 36.881C143.047 36.6543 142.611 36.3427 142.248 35.946C141.897 35.538 141.625 35.0507 141.432 34.484C141.24 33.906 141.143 33.26 141.143 32.546C141.143 31.8433 141.234 31.2087 141.415 30.642C141.608 30.0753 141.88 29.5937 142.231 29.197C142.583 28.789 143.013 28.4773 143.523 28.262C144.033 28.0353 144.611 27.922 145.257 27.922C145.949 27.922 146.549 28.041 147.059 28.279C147.569 28.517 147.989 28.84 148.317 29.248C148.646 29.656 148.89 30.132 149.048 30.676C149.218 31.2087 149.303 31.781 149.303 32.393V33.107H143.404V33.328C143.404 33.974 143.586 34.4953 143.948 34.892C144.311 35.2773 144.849 35.47 145.563 35.47C146.107 35.47 146.549 35.3567 146.889 35.13C147.241 34.9033 147.552 34.6143 147.824 34.263L148.997 35.572C148.635 36.082 148.136 36.4843 147.501 36.779C146.878 37.0623 146.153 37.204 145.325 37.204ZM145.291 29.554C144.713 29.554 144.254 29.7467 143.914 30.132C143.574 30.5173 143.404 31.016 143.404 31.628V31.764H147.042V31.611C147.042 30.999 146.889 30.506 146.583 30.132C146.289 29.7467 145.858 29.554 145.291 29.554ZM151.418 37V28.126H153.594V29.962H153.679C153.736 29.724 153.821 29.4973 153.934 29.282C154.059 29.0553 154.217 28.857 154.41 28.687C154.603 28.517 154.829 28.381 155.09 28.279C155.362 28.177 155.674 28.126 156.025 28.126H156.501V30.183H155.821C155.084 30.183 154.529 30.2907 154.155 30.506C153.781 30.7213 153.594 31.0727 153.594 31.56V37H151.418Z" fill="black"/>
</svg>
