<svg width="20" height="20" viewBox="0 0 20 20" fill="none" xmlns="http://www.w3.org/2000/svg">
<path fill-rule="evenodd" clip-rule="evenodd" d="M13.3431 11.9289L19 17.5858L17.5858 19L11.9289 13.3431L13.3431 11.9289Z" fill="#3333FF"/>
<path fill-rule="evenodd" clip-rule="evenodd" d="M19 11.9858L19 16.9858L17 16.9858L17 11.9858L19 11.9858Z" fill="#3333FF"/>
<path fill-rule="evenodd" clip-rule="evenodd" d="M19 18.9858L12 18.9858L12 16.9858L19 16.9858L19 18.9858Z" fill="#3333FF"/>
<path fill-rule="evenodd" clip-rule="evenodd" d="M6.65686 8.07107L1 2.41421L2.41422 1L8.07107 6.65685L6.65686 8.07107Z" fill="#3333FF"/>
<path fill-rule="evenodd" clip-rule="evenodd" d="M1.00003 8.01416L1.00003 3.01416L3.00003 3.01416L3.00003 8.01416L1.00003 8.01416Z" fill="#3333FF"/>
<path fill-rule="evenodd" clip-rule="evenodd" d="M1.00003 1.01416L8.00003 1.01416L8.00003 3.01416L1.00003 3.01416L1.00003 1.01416Z" fill="#3333FF"/>
</svg>
