<svg width="20" height="20" viewBox="0 0 20 20" fill="none" xmlns="http://www.w3.org/2000/svg">
<path fill-rule="evenodd" clip-rule="evenodd" d="M17.5858 19L11.9289 13.3432L13.3431 11.929L19 17.5858L17.5858 19Z" fill="#3333FF"/>
<path fill-rule="evenodd" clip-rule="evenodd" d="M11.929 18.9431L11.929 13.9431L13.929 13.9431L13.929 18.9431L11.929 18.9431Z" fill="#3333FF"/>
<path fill-rule="evenodd" clip-rule="evenodd" d="M11.929 11.9431L18.929 11.9431L18.929 13.9431L11.929 13.9431L11.929 11.9431Z" fill="#3333FF"/>
<path fill-rule="evenodd" clip-rule="evenodd" d="M2.41422 0.999977L8.07107 6.65683L6.65686 8.07104L1.00001 2.41419L2.41422 0.999977Z" fill="#3333FF"/>
<path fill-rule="evenodd" clip-rule="evenodd" d="M8.07105 1.05689L8.07104 6.05689L6.07104 6.05688L6.07105 1.05688L8.07105 1.05689Z" fill="#3333FF"/>
<path fill-rule="evenodd" clip-rule="evenodd" d="M8.07105 8.05688L1.07105 8.05688L1.07104 6.05688L8.07104 6.05688L8.07105 8.05688Z" fill="#3333FF"/>
</svg>
