<svg width="64" height="16" viewBox="0 0 64 16" fill="none" xmlns="http://www.w3.org/2000/svg">
<g clip-path="url(#clip0_16254_107456)">
<rect width="62.6667" height="16" transform="translate(0.581055)" fill="white"/>
<path d="M50.9834 0.241211H53.7158C60.4121 0.241211 63.2475 3.6964 63.2475 8.0135C63.2475 12.3306 60.4121 15.7858 53.7158 15.7858H50.9834V0.241211Z" fill="#0053EC"/>
<path d="M48.9402 15.7856C48.5442 10.9905 45.5069 8.98438 41.7845 8.98438C38.0621 8.98438 35.0327 10.9905 34.6367 15.7856H48.9402Z" fill="#0053EC"/>
<path d="M45.7442 3.76382C45.7442 4.50823 45.5119 5.23593 45.0768 5.85489C44.6417 6.47384 44.0232 6.95626 43.2996 7.24114C42.576 7.52601 41.7798 7.60055 41.0116 7.45532C40.2435 7.31009 39.5379 6.95162 38.9841 6.42524C38.4303 5.89886 38.0531 5.22821 37.9003 4.49811C37.7475 3.768 37.8259 3.01122 38.1257 2.32347C38.4254 1.63572 38.9329 1.04789 39.5842 0.634318C40.2354 0.220744 41.001 0 41.7842 0C42.8345 0 43.8417 0.396544 44.5843 1.1024C45.327 1.80825 45.7442 2.76559 45.7442 3.76382Z" fill="#0053EC"/>
<path d="M13.154 0.805664L8.40994 7.87788L3.6342 0.805664H0.581055V15.7819H3.78864V6.12394L8.33074 12.5638H8.43369L12.9243 6.12394V15.7819H16.1596V0.805664H13.154Z" fill="#0053EC"/>
<path d="M22.218 4.87793H19.0342V15.7817H22.218V4.87793Z" fill="#0053EC"/>
<path d="M25.6798 7.31655H23.9453V4.89265H25.6877V1.92676H28.8557V4.89265H31.3703V7.3316H28.8398V12.1117C28.8398 12.966 29.3269 13.3575 30.1466 13.3575C30.6356 13.3515 31.1141 13.2215 31.5326 12.9811V15.6647C30.8827 15.9173 30.1829 16.0329 29.4814 16.0034C27.145 16.0034 25.6798 14.9082 25.6798 12.4918V7.31655Z" fill="#0053EC"/>
<path d="M22.5112 1.79158C22.512 2.14699 22.4018 2.49462 22.1945 2.79044C21.9873 3.08625 21.6923 3.31695 21.347 3.4533C21.0017 3.58965 20.6216 3.62552 20.2548 3.55637C19.888 3.48722 19.5511 3.31615 19.2866 3.06484C19.0222 2.81353 18.8423 2.49329 18.7695 2.14467C18.6967 1.79606 18.7345 1.43477 18.8779 1.10656C19.0214 0.778349 19.2641 0.497993 19.5754 0.301005C19.8866 0.104017 20.2523 -0.000740366 20.6263 3.93885e-06C21.1259 0.000998394 21.6047 0.190073 21.958 0.525844C22.3112 0.861614 22.5102 1.31673 22.5112 1.79158Z" fill="#0053EC"/>
</g>
<defs>
<clipPath id="clip0_16254_107456">
<rect width="62.6667" height="16" fill="white" transform="translate(0.581055)"/>
</clipPath>
</defs>
</svg>
