<svg width="48" height="14" viewBox="0 0 48 14" fill="none" xmlns="http://www.w3.org/2000/svg">
<path d="M45 0.8C43.6 0.7 42.3 1.8 42.3 3.3C42.3 4.4 43 5.3 44.1 5.6C43.5 6.4 42 6.9 40.8 6.9C39 6.9 36.2 6.2 33.3 4.9L30.5 3.7C28 2.7 25.7 1.7 25 1.4C24 1 21.4 0 18.6 0C15 0 11.6 1.2 8.4 3.8C6.3 4 4.6 4.7 2.6 6.2C0.7 7.7 0 9.4 0 10.5C0 10.8 0 11 0.1 11.2C0.3 12.1 1 12.7 1.8 12.8C2 12.9 2.3 12.9 2.5 12.9C3.9 12.9 5 11.8 5 10.4C5 9.3 4.3 8.4 3.4 8.1C4.1 7.1 6 6.2 7.1 6.2C8.7 6.2 10 6.3 12.6 7.1C14.3 7.7 17.6 8.9 20.5 10.1C22.3 10.8 23.9 11.4 24.8 11.7C27.8 12.8 30.2 13.5 32.6 13.5C36.4 13.5 39.7 11.9 42.6 8.6C44.6 7.6 47.3 6 47.3 3.3C47.3 2.1 46.4 0.8 45 0.8ZM27.9 6.2C29.7 7 31.4 7.7 32.4 8.1C34.7 8.9 36.9 9.4 38.8 9.4C37.8 10.4 36.2 10.9 34.4 10.9C32.4 10.9 30.4 10.4 28.1 9.6C27.2 9.3 25.4 8.6 23.4 7.8C21.3 6.9 18.9 6 17.2 5.4C14.7 4.5 13.2 4.2 12 4C13 3.1 14.4 2.5 16.1 2.5C17.8 2.5 19.5 2.8 21.4 3.4C22.7 3.9 25.5 5.1 27.9 6.2Z" fill="#FFFFFF"/>
</svg>
