<svg width="19" height="20" viewBox="0 0 19 20" fill="none" xmlns="http://www.w3.org/2000/svg">
<path d="M9.5 18.3125C4.90913 18.3125 1.1875 14.5909 1.1875 10C1.1875 5.40913 4.90913 1.6875 9.5 1.6875C14.0909 1.6875 17.8125 5.40913 17.8125 10C17.8125 14.5909 14.0909 18.3125 9.5 18.3125ZM9.5 19.5C14.7467 19.5 19 15.2467 19 10C19 4.75329 14.7467 0.5 9.5 0.5C4.25329 0.5 0 4.75329 0 10C0 15.2467 4.25329 19.5 9.5 19.5Z" fill="#3333FF"/>
<path d="M7.44706 6.50331C7.64482 6.40154 7.88288 6.41882 8.06386 6.5481L12.2201 9.51685C12.3761 9.6283 12.4688 9.80825 12.4688 10C12.4688 10.1918 12.3761 10.3717 12.2201 10.4832L8.06386 13.4519C7.88288 13.5812 7.64482 13.5985 7.44706 13.4967C7.2493 13.3949 7.125 13.1912 7.125 12.9688V7.03125C7.125 6.80884 7.2493 6.60508 7.44706 6.50331Z" fill="#3333FF"/>
</svg>
