<svg width="24" height="24" viewBox="0 0 24 24" fill="none" xmlns="http://www.w3.org/2000/svg">
<path d="M12 0.500014C18.3513 0.500017 23.5 5.64874 23.5 12C23.5 18.3513 18.3513 23.5 12 23.5C5.64872 23.5 0.500001 18.3513 0.500003 12C0.500005 5.64873 5.64873 0.500012 12 0.500014Z" stroke="#3333FF"/>
<path d="M10.777 14.8407V11.9778C11.7701 11.9298 12.5303 11.7258 13.0575 11.3657C13.5969 10.9935 13.8667 10.4474 13.8667 9.72715V9.47507C13.8667 8.9229 13.695 8.49677 13.3517 8.19668C13.0084 7.88458 12.5487 7.72853 11.9724 7.72853C11.3594 7.72853 10.869 7.90259 10.5011 8.25069C10.1333 8.5988 9.88199 9.04294 9.74713 9.5831L8 8.89889C8.11034 8.52678 8.26973 8.16667 8.47816 7.81856C8.69885 7.47045 8.97471 7.16436 9.30575 6.90028C9.63678 6.62419 10.0291 6.40813 10.4828 6.25208C10.9364 6.08403 11.4575 6 12.046 6C12.6467 6 13.1923 6.08403 13.6828 6.25208C14.1732 6.42013 14.59 6.6602 14.9333 6.9723C15.2766 7.27239 15.5402 7.64451 15.7241 8.08864C15.908 8.52078 16 9.00092 16 9.52909C16 10.0693 15.9019 10.5554 15.7057 10.9875C15.5218 11.4077 15.2705 11.7678 14.9517 12.0679C14.6452 12.368 14.2958 12.614 13.9034 12.8061C13.5111 12.9862 13.1065 13.1122 12.6897 13.1842V14.8407H10.777ZM11.7517 19C11.2858 19 10.9425 18.892 10.7218 18.6759C10.5134 18.4478 10.4092 18.1597 10.4092 17.8116V17.5055C10.4092 17.1574 10.5134 16.8753 10.7218 16.6593C10.9425 16.4312 11.2858 16.3172 11.7517 16.3172C12.2176 16.3172 12.5548 16.4312 12.7632 16.6593C12.9839 16.8753 13.0943 17.1574 13.0943 17.5055V17.8116C13.0943 18.1597 12.9839 18.4478 12.7632 18.6759C12.5548 18.892 12.2176 19 11.7517 19Z" fill="#3333FF"/>
</svg>
