<svg viewBox="0 0 16 16" fill="none" xmlns="http://www.w3.org/2000/svg">
<path d="M12.9042 14.3194L1.67871 3.09392C2.08932 2.56569 2.56469 2.09031 3.09291 1.67969L14.3184 12.9052C13.9078 13.4334 13.4324 13.9088 12.9042 14.3194Z" fill="#6E6E6E"/>
<path fill-rule="evenodd" clip-rule="evenodd" d="M2 8C2 11.3137 4.68629 14 8 14C11.3137 14 14 11.3137 14 8C14 4.68629 11.3137 2 8 2C4.68629 2 2 4.68629 2 8ZM8 0C3.58172 0 0 3.58172 0 8C0 12.4183 3.58172 16 8 16C12.4183 16 16 12.4183 16 8C16 3.58172 12.4183 0 8 0Z" fill="#6E6E6E"/>
</svg>
