<svg width="22" height="22" viewBox="0 0 22 22" fill="none" xmlns="http://www.w3.org/2000/svg">
<rect width="22" height="22" fill="#E5E5E5"/>
<g id="Lignende s&#195;&#184;gninger - desktop" clip-path="url(#clip0_11330_73562)">
<rect width="1440" height="1540" transform="translate(-707 -593)" fill="white"/>
<g id="Frame 266">
<g id="Frame 299">
<g id="User feedback">
<rect id="bg" x="-309" y="-17" width="989" height="56" fill="white"/>
<g id="Feather Icon / thumbs-down">
<path id="Mask" fill-rule="evenodd" clip-rule="evenodd" d="M22 2.91324C21.7975 1.20548 20.3796 0 18.658 0H18.5567H4.47977C2.96067 0 1.74539 1.10502 1.44158 2.51142L0.0237532 11.5525C-0.178793 13.1598 0.93521 14.7671 2.55558 14.968H3.06194H7.82178V17.9817C7.82178 20.1918 9.64469 22 11.8727 22C12.2778 22 12.6829 21.7991 12.7842 21.3973L16.5313 12.9589H18.5567C20.2784 12.9589 21.6962 11.7534 21.8987 10.0457V9.94521V3.0137C22 3.0137 22 2.91324 22 2.91324ZM14.9109 11.8539L11.2651 19.9909C10.4549 19.6895 9.84724 18.9863 9.84724 18.0822V14.0639C9.84724 13.4612 9.44214 13.0594 8.83451 13.0594H3.06194H2.8594C2.35303 12.9589 1.94794 12.4566 2.04921 11.9543L3.46704 2.91324C3.56831 2.41096 3.9734 2.00913 4.47977 2.00913H14.9109V11.8539ZM18.658 11.0502C19.2656 11.0502 19.8733 10.5479 19.9745 9.94521V3.11416C19.8733 2.51142 19.2656 2.00913 18.658 2.00913H16.9363V11.0502H18.658Z" fill="#212121"/>
<mask id="mask0_11330_73562" style="mask-type:alpha" maskUnits="userSpaceOnUse" x="0" y="0" width="22" height="22">
<path id="Mask_2" fill-rule="evenodd" clip-rule="evenodd" d="M22 2.91324C21.7975 1.20548 20.3796 0 18.658 0H18.5567H4.47977C2.96067 0 1.74539 1.10502 1.44158 2.51142L0.0237532 11.5525C-0.178793 13.1598 0.93521 14.7671 2.55558 14.968H3.06194H7.82178V17.9817C7.82178 20.1918 9.64469 22 11.8727 22C12.2778 22 12.6829 21.7991 12.7842 21.3973L16.5313 12.9589H18.5567C20.2784 12.9589 21.6962 11.7534 21.8987 10.0457V9.94521V3.0137C22 3.0137 22 2.91324 22 2.91324ZM14.9109 11.8539L11.2651 19.9909C10.4549 19.6895 9.84724 18.9863 9.84724 18.0822V14.0639C9.84724 13.4612 9.44214 13.0594 8.83451 13.0594H3.06194H2.8594C2.35303 12.9589 1.94794 12.4566 2.04921 11.9543L3.46704 2.91324C3.56831 2.41096 3.9734 2.00913 4.47977 2.00913H14.9109V11.8539ZM18.658 11.0502C19.2656 11.0502 19.8733 10.5479 19.9745 9.94521V3.11416C19.8733 2.51142 19.2656 2.00913 18.658 2.00913H16.9363V11.0502H18.658Z" fill="black"/>
</mask>
<g mask="url(#mask0_11330_73562)">
<g id="Icon &#240;&#159;&#142;&#168;">
<path id="Shape" fill-rule="evenodd" clip-rule="evenodd" d="M-1 -1H23V23H-1V-1Z" fill="#212121"/>
</g>
</g>
</g>
</g>
</g>
</g>
</g>
<defs>
<clipPath id="clip0_11330_73562">
<rect width="1440" height="1540" fill="white" transform="translate(-707 -593)"/>
</clipPath>
</defs>
</svg>
