<svg width="22" height="22" viewBox="0 0 22 22" fill="none" xmlns="http://www.w3.org/2000/svg">
<rect width="22" height="22" fill="#E5E5E5"/>
<g clip-path="url(#clip0_11330_73562)">
<rect width="1440" height="1540" transform="translate(-651 -591)" fill="white"/>
<rect x="-253" y="-15" width="989" height="56" fill="white"/>
<path fill-rule="evenodd" clip-rule="evenodd" d="M21.3671 8.2C20.8608 7.6 20.1519 7.1 19.3418 7H18.8354H14.1772V4C14.1772 1.8 12.3544 0 10.1266 0C9.72152 0 9.31646 0.2 9.21519 0.6L5.46835 9H3.03797C1.31646 9 0 10.3 0 12V19C0 20.7 1.31646 22 3.03797 22H17.519C19.038 22 20.2532 20.9 20.557 19.5L21.9747 10.5C22.0759 9.7 21.8734 8.9 21.3671 8.2ZM5.06329 20H3.03797C2.43038 20 2.02532 19.6 2.02532 19V12C2.02532 11.4 2.43038 11 3.03797 11H5.06329V20ZM17.519 20C18.0253 20 18.4304 19.7 18.5316 19.2L20.0506 10.1C20.0506 9.9 20.0506 9.6 19.8481 9.4L19.8481 9.39999C19.6456 9.19999 19.443 9 19.1392 9H18.9367H13.1646C12.557 9 12.1519 8.6 12.1519 8V4C12.1519 3.1 11.5443 2.4 10.7342 2.1L7.08861 10.2V20H17.519Z" fill="#212121"/>
<mask id="mask0_11330_73562" style="mask-type:alpha" maskUnits="userSpaceOnUse" x="0" y="0" width="22" height="22">
<path fill-rule="evenodd" clip-rule="evenodd" d="M21.3671 8.2C20.8608 7.6 20.1519 7.1 19.3418 7H18.8354H14.1772V4C14.1772 1.8 12.3544 0 10.1266 0C9.72152 0 9.31646 0.2 9.21519 0.6L5.46835 9H3.03797C1.31646 9 0 10.3 0 12V19C0 20.7 1.31646 22 3.03797 22H17.519C19.038 22 20.2532 20.9 20.557 19.5L21.9747 10.5C22.0759 9.7 21.8734 8.9 21.3671 8.2ZM5.06329 20H3.03797C2.43038 20 2.02532 19.6 2.02532 19V12C2.02532 11.4 2.43038 11 3.03797 11H5.06329V20ZM17.519 20C18.0253 20 18.4304 19.7 18.5316 19.2L20.0506 10.1C20.0506 9.9 20.0506 9.6 19.8481 9.4L19.8481 9.39999C19.6456 9.19999 19.443 9 19.1392 9H18.9367H13.1646C12.557 9 12.1519 8.6 12.1519 8V4C12.1519 3.1 11.5443 2.4 10.7342 2.1L7.08861 10.2V20H17.519Z" fill="white"/>
</mask>
<g mask="url(#mask0_11330_73562)">
<path fill-rule="evenodd" clip-rule="evenodd" d="M-1 -1H23V23H-1V-1Z" fill="#212121"/>
</g>
</g>
<defs>
<clipPath id="clip0_11330_73562">
<rect width="1440" height="1540" fill="white" transform="translate(-651 -591)"/>
</clipPath>
</defs>
</svg>
