<?xml version="1.0" encoding="UTF-8"?>
<svg
  id="Layer_1"
  data-name="Layer 1"
  xmlns="http://www.w3.org/2000/svg"
  viewBox="0 0 50.51074 40.85107"
  fill="none"
>
  <polygon
    points="31.22949 40.85107 31.22949 40.84937 31.229 40.85107 31.22949 40.85107"
    fill="currentColor"
  />
  <path
    d="M50.51074,3.40039V0H0v36.19434h22.41211c2.38965,0,4.52637,1.60254,5.19629,3.89844l.2207.75659v.00171h3.3999l.00049-.00171.2207-.75659c.66992-2.2959,2.80664-3.89844,5.19629-3.89844h13.79443V13.57861h-13.79443c-2.92365,0-5.51208,1.43634-7.11719,3.63416-1.6051-2.19781-4.19354-3.63416-7.11719-3.63416h-13.79443v14.12939h3.40039v-10.72949h10.39404c2.98682,0,5.41699,2.43066,5.41699,5.41797v12.27441c-1.51562-1.18359-3.41162-1.87695-5.41699-1.87695H3.40039V3.40039h47.11035ZM31.22949,22.39648c0-2.9873,2.43018-5.41797,5.41699-5.41797h10.39404v15.81543h-10.39404c-2.00537,0-3.90137.69336-5.41699,1.87695v-12.27441Z"
    fill="currentColor"
  />
</svg>
