<?xml version="1.0" encoding="UTF-8"?>
<svg
  id="Layer_1"
  data-name="Layer 1"
  xmlns="http://www.w3.org/2000/svg"
  viewBox="0 0 185.70117 40.85107"
  fill="none"
>
  <g fill="currentColor" data-text="true">
    <path d="M65.41113,16.17969c-1.02002,0-1.88428-.18164-2.59229-.54541-.7085-.36328-1.31787-.84033-1.82764-1.43066l1.5127-1.46436c.4082.47217.86426.83203,1.36865,1.07959s1.06201.37109,1.67432.37109c.69141,0,1.21289-.14893,1.56445-.44678.35059-.29834.52637-.7002.52637-1.20654,0-.39355-.11328-.71387-.33984-.96143-.22656-.24707-.65137-.42725-1.27441-.53955l-1.12207-.16895c-2.36914-.37451-3.55322-1.52588-3.55322-3.45508,0-.5332.09912-1.01562.29736-1.44678s.48438-.7998.8584-1.10645.82471-.54199,1.35156-.70654c.52734-.16455,1.125-.24658,1.79395-.24658.89453,0,1.67676.14746,2.3457.44287s1.24121.73242,1.7168,1.31152l-1.53027,1.44775c-.29395-.35938-.65137-.65137-1.07031-.87646-.41992-.22461-.94629-.33691-1.58105-.33691-.64648,0-1.13086.12109-1.45361.3623-.32324.2417-.48438.58154-.48438,1.01953,0,.44922.12988.78076.39062.99463.26074.21338.68018.37061,1.2583.47168l1.10449.2041c1.20117.21582,2.08887.59863,2.66113,1.14893s.8584,1.31885.8584,2.30566c0,.56738-.09961,1.08057-.29785,1.54053-.19824.45947-.4873.85645-.86719,1.19092-.37988.33496-.84375.59326-1.39355.7749s-1.18164.27246-1.89551.27246Z"/>
    <path d="M74.67676,15.97559c-.74805,0-1.31738-.19531-1.70898-.58545-.39062-.38965-.58594-.94678-.58594-1.6709v-4.86719h-1.30957v-1.75098h.68066c.32812,0,.55176-.07666.6709-.22949s.17871-.38232.17871-.68848v-1.51318h1.95508v2.43115h1.81836v1.75098h-1.81836v5.37207h1.68262v1.75146h-1.56348Z"/>
    <path d="M83.56641,14.49609h-.08496c-.0791.22705-.18359.43945-.31445.6377-.12988.19824-.29492.37695-.49219.53516-.19922.15918-.43652.28418-.71484.37402-.27734.09082-.59766.13672-.95996.13672-.91797,0-1.62109-.30078-2.1084-.90137s-.73047-1.45654-.73047-2.56738v-5.60986h2.17578v5.38916c0,.61182.11914,1.07959.35742,1.40234.2373.32324.61719.48438,1.13867.48438.21484,0,.42773-.02783.6377-.08496.20898-.05664.39355-.14453.55176-.26318.15918-.11914.28906-.2666.3916-.44238.10156-.17529.15234-.38232.15234-.62012v-5.86523h2.17676v8.87451h-2.17676v-1.47949Z"/>
    <path d="M93.7666,14.49609h-.08496c-.1582.50977-.45898.91797-.90039,1.22461-.44238.30566-.95801.45898-1.54688.45898-1.12207,0-1.98047-.40234-2.57617-1.20752-.59473-.80469-.89258-1.95508-.89258-3.45117,0-1.48438.29785-2.62646.89258-3.42529.5957-.79932,1.4541-1.19873,2.57617-1.19873.58887,0,1.10449.15039,1.54688.45068.44141.30029.74219.70557.90039,1.21533h.08496V3.39502h2.17676v12.58057h-2.17676v-1.47949ZM91.93066,14.37695c.52148,0,.95801-.12451,1.30957-.37402.35059-.24902.52637-.60596.52637-1.0708v-2.82227c0-.43018-.17578-.77588-.52637-1.03662-.35156-.26074-.78809-.39111-1.30957-.39111-.56641,0-1.02246.18994-1.36817.56934-.3457.37988-.51855.88721-.51855,1.52148v1.53027c0,.63477.17285,1.13867.51855,1.5127.34571.37402.80176.56104,1.36817.56104Z"/>
    <path d="M99.54687,5.80908c-.45312,0-.7793-.10205-.97754-.30615-.19824-.20361-.29687-.46436-.29687-.78174v-.34033c0-.31689.09863-.57764.29687-.78174s.52441-.30615.97754-.30615c.44238,0,.76562.10205.96973.30615.20312.2041.30566.46484.30566.78174v.34033c0,.31738-.10254.57812-.30566.78174-.2041.2041-.52734.30615-.96973.30615ZM98.45898,7.10107h2.17578v8.87451h-2.17578V7.10107Z"/>
    <path d="M106.7373,16.17969c-.65723,0-1.24316-.11133-1.75879-.33203-.5166-.22119-.95215-.53271-1.30957-.93506-.35645-.40234-.63184-.88965-.82422-1.46191-.19336-.57227-.28906-1.21582-.28906-1.92969,0-.70264.09375-1.33691.28027-1.90381.1875-.56689.45605-1.05127.80762-1.45361s.78223-.71387,1.29199-.93506c.50977-.2207,1.08789-.33154,1.73438-.33154.69043,0,1.29199.11914,1.80176.35693.50977.23828.92871.56104,1.25781.96924.3291.40771.5752.88135.73926,1.41943.16406.53857.24707,1.11328.24707,1.72559v.71387h-5.89941v.21924c0,.6416.18164,1.15674.54395,1.54443.36328.38867.90137.58252,1.61523.58252.54395,0,.98828-.1123,1.33496-.3374.34473-.2251.6543-.51172.92578-.86084l1.17285,1.3125c-.3623.51172-.8584.91211-1.4873,1.20264-.62891.28906-1.35742.43457-2.18457.43457ZM106.70312,8.5293c-.57715,0-1.03613.19287-1.37695.57764-.33984.38574-.50977.88428-.50977,1.49609v.13623h3.6377v-.15332c0-.61182-.14941-1.10742-.4502-1.4873-.2998-.37939-.7334-.56934-1.30078-.56934Z"/>
    <path d="M113.63965,16.16211c-.46484,0-.80762-.11621-1.02832-.34863-.22168-.23193-.33203-.5293-.33203-.89258v-.30566c0-.36279.11035-.66309.33203-.90137.2207-.23779.56348-.35693,1.02832-.35693.47559,0,.82129.11914,1.03711.35693.21484.23828.32227.53857.32227.90137v.30566c0,.36328-.10742.66064-.32227.89258-.21582.23242-.56152.34863-1.03711.34863Z"/>
    <path d="M117.43066,3.39502h2.17578v5.16797h.06836c.1582-.50977.45898-.91504.90137-1.21533.44141-.30029.95703-.45068,1.54688-.45068,1.13281,0,1.99707.39941,2.59277,1.19873.59473.79883.8916,1.94092.8916,3.42529,0,1.49609-.29688,2.64648-.8916,3.45117-.5957.80518-1.45996,1.20752-2.59277,1.20752-.58984,0-1.10254-.15332-1.53906-.45898-.43652-.30664-.73926-.71484-.90918-1.22461h-.06836v1.47949h-2.17578V3.39502ZM121.42578,14.37695c.56641,0,1.02539-.18701,1.37695-.56104s.52734-.87793.52734-1.5127v-1.53027c0-.63428-.17578-1.1416-.52734-1.52148-.35156-.37939-.81055-.56934-1.37695-.56934-.52148,0-.95508.13037-1.30078.39111s-.51855.60645-.51855,1.03662v2.82227c0,.46484.17285.82178.51855,1.0708.3457.24951.7793.37402,1.30078.37402Z"/>
    <path d="M128.71777,5.80908c-.45312,0-.7793-.10205-.97754-.30615-.19824-.20361-.29688-.46436-.29688-.78174v-.34033c0-.31689.09863-.57764.29688-.78174s.52441-.30615.97754-.30615c.44238,0,.76562.10205.96973.30615.20312.2041.30566.46484.30566.78174v.34033c0,.31738-.10254.57812-.30566.78174-.2041.2041-.52734.30615-.96973.30615ZM127.62988,7.10107h2.17578v8.87451h-2.17578V7.10107Z"/>
    <path d="M132.32227,3.39502h2.17578v5.16797h.06836c.1582-.50977.45898-.91504.90137-1.21533.44141-.30029.95703-.45068,1.54688-.45068,1.13281,0,1.99707.39941,2.59277,1.19873.59473.79883.8916,1.94092.8916,3.42529,0,1.49609-.29688,2.64648-.8916,3.45117-.5957.80518-1.45996,1.20752-2.59277,1.20752-.58984,0-1.10254-.15332-1.53906-.45898-.43652-.30664-.73926-.71484-.90918-1.22461h-.06836v1.47949h-2.17578V3.39502ZM136.31738,14.37695c.56641,0,1.02539-.18701,1.37695-.56104s.52734-.87793.52734-1.5127v-1.53027c0-.63428-.17578-1.1416-.52734-1.52148-.35156-.37939-.81055-.56934-1.37695-.56934-.52148,0-.95508.13037-1.30078.39111s-.51855.60645-.51855,1.03662v2.82227c0,.46484.17285.82178.51855,1.0708.3457.24951.7793.37402,1.30078.37402Z"/>
    <path d="M144.69727,15.97559c-.74805,0-1.29785-.1875-1.64844-.56152-.35156-.37402-.52734-.90088-.52734-1.58105V3.39502h2.17578v10.8291h1.17383v1.75146h-1.17383Z"/>
    <path d="M148.60742,5.80908c-.45312,0-.7793-.10205-.97754-.30615-.19824-.20361-.29688-.46436-.29688-.78174v-.34033c0-.31689.09863-.57764.29688-.78174s.52441-.30615.97754-.30615c.44238,0,.76562.10205.96973.30615.20312.2041.30566.46484.30566.78174v.34033c0,.31738-.10254.57812-.30566.78174-.2041.2041-.52734.30615-.96973.30615ZM147.51953,7.10107h2.17578v8.87451h-2.17578V7.10107Z"/>
    <path d="M155.73047,16.17969c-.63477,0-1.20508-.1084-1.70898-.32324-.50391-.21533-.93457-.52734-1.29199-.93555-.35645-.40771-.63184-.89795-.82422-1.47021-.19336-.57227-.28906-1.21582-.28906-1.92969s.0957-1.354.28906-1.9209c.19238-.56641.46777-1.05127.82422-1.45361.35742-.40186.78809-.71094,1.29199-.92627s1.07422-.32324,1.70898-.32324c.63379,0,1.20703.10791,1.7168.32324s.94336.52441,1.30078.92627c.35645.40234.63086.88721.82422,1.45361.19238.56689.28906,1.20703.28906,1.9209s-.09668,1.35742-.28906,1.92969c-.19336.57227-.46777,1.0625-.82422,1.47021-.35742.4082-.79102.72021-1.30078.93555-.50977.21484-1.08301.32324-1.7168.32324ZM155.73047,14.42822c.57812,0,1.03125-.17578,1.35938-.52734.3291-.35107.49316-.8667.49316-1.54688v-1.64893c0-.66846-.16406-1.17871-.49316-1.52979-.32812-.35156-.78125-.52734-1.35938-.52734-.56738,0-1.01465.17578-1.34375.52734-.32812.35107-.49219.86133-.49219,1.52979v1.64893c0,.68018.16406,1.1958.49219,1.54688.3291.35156.77637.52734,1.34375.52734Z"/>
    <path d="M164.48535,15.97559c-.74805,0-1.31738-.19531-1.70898-.58545-.39062-.38965-.58594-.94678-.58594-1.6709v-4.86719h-1.30957v-1.75098h.68066c.32813,0,.55176-.07666.6709-.22949s.17871-.38232.17871-.68848v-1.51318h1.95508v2.43115h1.81836v1.75098h-1.81836v5.37207h1.68262v1.75146h-1.56348Z"/>
    <path d="M171.59082,16.17969c-.65723,0-1.24316-.11133-1.75879-.33203-.5166-.22119-.95215-.53271-1.30957-.93506-.35645-.40234-.63184-.88965-.82422-1.46191-.19336-.57227-.28906-1.21582-.28906-1.92969,0-.70264.09375-1.33691.28027-1.90381.1875-.56689.45605-1.05127.80762-1.45361s.78223-.71387,1.29199-.93506c.50977-.2207,1.08789-.33154,1.73438-.33154.69043,0,1.29199.11914,1.80176.35693.50977.23828.92871.56104,1.25781.96924.3291.40771.5752.88135.73926,1.41943.16406.53857.24707,1.11328.24707,1.72559v.71387h-5.89941v.21924c0,.6416.18164,1.15674.54395,1.54443.36328.38867.90137.58252,1.61523.58252.54395,0,.98828-.1123,1.33496-.3374.34473-.2251.6543-.51172.92578-.86084l1.17285,1.3125c-.3623.51172-.8584.91211-1.4873,1.20264-.62891.28906-1.35742.43457-2.18457.43457ZM171.55664,8.5293c-.57715,0-1.03613.19287-1.37695.57764-.33984.38574-.50977.88428-.50977,1.49609v.13623h3.6377v-.15332c0-.61182-.14941-1.10742-.4502-1.4873-.2998-.37939-.7334-.56934-1.30078-.56934Z"/>
    <path d="M177.49023,3.39502h2.17578v7.58203h.08496l1.17383-1.59814,1.98828-2.27783h2.46582l-3.06055,3.43408,3.38281,5.44043h-2.58398l-2.27734-3.97852-1.17383,1.2749v2.70361h-2.17578V3.39502Z"/>
    <path d="M67.09375,30.89648h-.08496c-.1582.50977-.45898.91797-.90039,1.22363-.44238.30566-.95801.45898-1.54736.45898-1.12207,0-1.98047-.40234-2.5752-1.20703-.59521-.80469-.89258-1.95508-.89258-3.45117,0-1.48438.29736-2.62598.89258-3.4248.59473-.7998,1.45312-1.19922,2.5752-1.19922.58936,0,1.10498.15039,1.54736.45117.44141.2998.74219.70508.90039,1.21484h.08496v-5.16797h2.17676v12.58008h-2.17676v-1.47852ZM65.25879,30.77734c.52051,0,.95703-.125,1.30859-.37402.35059-.24902.52637-.60645.52637-1.07129v-2.82227c0-.42969-.17578-.77539-.52637-1.03613-.35156-.26074-.78809-.3916-1.30859-.3916-.56738,0-1.02344.19043-1.36914.56934-.3457.37988-.51855.8877-.51855,1.52148v1.53027c0,.63477.17285,1.13867.51855,1.5127s.80176.56152,1.36914.56152Z"/>
    <path d="M71.78613,19.79492h2.17578v7.58203h.08496l1.17383-1.59766,1.98828-2.27832h2.46582l-3.06055,3.43457,3.38281,5.43945h-2.58398l-2.27734-3.97754-1.17383,1.27441v2.70313h-2.17578v-12.58008Z"/>
  </g>
  <g fill="currentColor">
    <polygon points="31.22949 40.85107 31.22949 40.84937 31.229 40.85107 31.22949 40.85107"/>
    <path d="M50.51074,3.40039V0H0v36.19434h22.41211c2.38965,0,4.52637,1.60254,5.19629,3.89844l.2207.75659v.00171h3.3999l.00049-.00171.2207-.75659c.66992-2.2959,2.80664-3.89844,5.19629-3.89844h13.79443V13.57861h-13.79443c-2.92365,0-5.51208,1.43634-7.11719,3.63416-1.6051-2.19781-4.19354-3.63416-7.11719-3.63416h-13.79443v14.12939h3.40039v-10.72949h10.39404c2.98682,0,5.41699,2.43066,5.41699,5.41797v12.27441c-1.51562-1.18359-3.41162-1.87695-5.41699-1.87695H3.40039V3.40039h47.11035ZM31.22949,22.39648c0-2.9873,2.43018-5.41797,5.41699-5.41797h10.39404v15.81543h-10.39404c-2.00537,0-3.90137.69336-5.41699,1.87695v-12.27441Z"/>
  </g>
</svg>
