<svg viewBox="0 0 35 35" fill="none" version="1.1"
   xmlns="http://www.w3.org/2000/svg"
   xmlns:svg="http://www.w3.org/2000/svg">
   <g clip-path="url(#clipPath19885)">
      <path d="M33.42 21.64C33.0397 20.6347 32.4655 19.7139 31.73 18.93C31.0559 18.1869 30.2353 17.5911 29.32 17.18C28.7903 16.9202 28.238 16.7093 27.67 16.55C28.8958 16.0436 29.9852 15.2557 30.85 14.25C32.1307 12.6395 32.7748 10.6145 32.66 8.56005C32.7195 7.4066 32.5347 6.25358 32.1177 5.17652C31.7007 4.09945 31.0608 3.12264 30.24 2.31005C29.3502 1.50944 28.3106 0.893081 27.1812 0.496591C26.0518 0.100101 24.855 -0.0686637 23.66 4.78951e-05H0V2.43005H3.54V32.57H0V35H24.88C26.1219 35.0529 27.361 34.8423 28.5157 34.3821C29.6705 33.9219 30.7148 33.2226 31.58 32.3301C33.3112 30.3743 34.2085 27.8188 34.08 25.21C34.1048 23.9876 33.8802 22.7729 33.42 21.64ZM24.1 14.25C25.3771 12.6381 26.0176 10.6132 25.9 8.56005C25.9512 7.4655 25.7849 6.37167 25.4107 5.34179C25.0365 4.31192 24.4619 3.36645 23.72 2.56005C24.3934 2.55725 25.0603 2.69246 25.6794 2.95732C26.2986 3.22218 26.8569 3.61109 27.32 4.10005C27.7985 4.62229 28.1689 5.23403 28.41 5.90005C28.8031 6.88614 29.0034 7.93849 29 9.00005C29.0136 10.0236 28.8373 11.0408 28.48 12C28.2435 12.741 27.8514 13.4229 27.33 14C26.7903 14.5444 26.1388 14.9649 25.4205 15.2325C24.7022 15.5002 23.9343 15.6085 23.17 15.55H22.73C23.228 15.1625 23.6868 14.727 24.1 14.25ZM14.63 2.53005H16.41C17.1752 2.47082 17.9441 2.57978 18.6628 2.84927C19.3814 3.11877 20.0324 3.54226 20.57 4.09005C20.9442 4.49544 21.2514 4.95792 21.48 5.46005C22.004 6.56564 22.2674 7.77669 22.25 9.00005C22.2611 10.0966 22.0537 11.1845 21.64 12.2C21.2665 13.2589 20.5475 14.1611 19.5987 14.7616C18.65 15.362 17.5268 15.6257 16.41 15.51H14.63V2.53005ZM10.92 32.4701H7.25V18.05H10.92V32.4701ZM10.92 15.52H7.25V2.52005H10.92V15.52ZM22.58 29.66C22.3813 30.0238 22.1359 30.36 21.85 30.66C21.3028 31.2359 20.6423 31.6922 19.91 32C19.0449 32.3282 18.125 32.4877 17.2 32.4701H14.63V18.05H17.2C18.1299 18.0299 19.0536 18.2071 19.91 18.57C20.6427 18.8541 21.3047 19.2943 21.85 19.86C22.0047 20.0272 22.1483 20.2042 22.28 20.39C23.2494 21.8215 23.7428 23.5221 23.69 25.25C23.7204 26.7928 23.3372 28.3155 22.58 29.66ZM29.65 29C29.4274 29.616 29.0879 30.183 28.65 30.67C28.091 31.2478 27.4163 31.701 26.67 32C26.0294 32.2468 25.3551 32.3952 24.67 32.44L24.77 32.3301C26.5048 30.3758 27.4058 27.8202 27.28 25.21C27.3012 23.9879 27.0768 22.7739 26.62 21.64C26.2606 20.6403 25.7105 19.7199 25 18.93C24.6918 18.6124 24.3572 18.3214 24 18.06C24.9093 18.0425 25.8122 18.2162 26.65 18.57C27.3784 18.8567 28.0366 19.2967 28.58 19.86C29.0035 20.3013 29.3424 20.8165 29.58 21.38C30.137 22.5933 30.4171 23.9152 30.4 25.25C30.4166 26.5389 30.1611 27.8167 29.65 29Z" fill="#3333FF" />
      <path d="M49.8391 9.89004C49.4213 9.54481 48.9008 9.34787 48.3591 9.33004V9.24004C48.5992 9.2297 48.8359 9.17899 49.0591 9.09004C49.2841 8.99855 49.4882 8.86248 49.6591 8.69004C49.8409 8.48821 49.9833 8.2542 50.0791 8.00004C50.1888 7.67818 50.2429 7.34003 50.2391 7.00004C50.2395 6.62518 50.1752 6.25306 50.0491 5.90004C49.9293 5.58325 49.7416 5.29654 49.4991 5.06004C49.2464 4.82101 48.9467 4.63712 48.6191 4.52004C48.2479 4.38311 47.8548 4.31532 47.4591 4.32004H42.6191V14.77H47.9291C48.2982 14.7708 48.663 14.6923 48.9991 14.54C49.3224 14.3857 49.6114 14.168 49.8491 13.9C50.1025 13.6087 50.2932 13.2683 50.4091 12.9C50.5483 12.5225 50.6161 12.1224 50.6091 11.72C50.6291 11.3682 50.5693 11.0163 50.4343 10.6908C50.2992 10.3653 50.0923 10.0744 49.8291 9.84004L49.8391 9.89004ZM44.5991 6.00004H46.9991C47.3064 5.98247 47.6082 6.08667 47.8391 6.29004C47.9425 6.39901 48.0224 6.52798 48.074 6.669C48.1256 6.81003 48.1478 6.96012 48.1391 7.11004V7.57004C48.1484 7.72002 48.1265 7.87028 48.0748 8.01139C48.0232 8.15251 47.943 8.28142 47.8391 8.39004C47.726 8.49264 47.5932 8.57124 47.4488 8.62108C47.3045 8.67093 47.1515 8.69098 46.9991 8.68004H44.5991V6.00004ZM48.5991 12C48.6094 12.1563 48.5862 12.313 48.531 12.4596C48.4758 12.6062 48.3899 12.7393 48.2791 12.85C48.0354 13.0587 47.7192 13.1629 47.3991 13.14H44.5991V10.34H47.3591C47.6806 10.32 47.9969 10.4278 48.2391 10.64C48.3484 10.7519 48.4332 10.8852 48.4883 11.0315C48.5434 11.1778 48.5675 11.3339 48.5591 11.49L48.5991 12ZM52.3891 5.59004C52.2177 5.40156 52.1248 5.15476 52.1291 4.90004V4.60004C52.1248 4.34532 52.2177 4.09853 52.3891 3.91004C52.5069 3.80944 52.6438 3.73367 52.7916 3.68727C52.9394 3.64088 53.095 3.62481 53.2491 3.64004C53.5602 3.61269 53.8695 3.70978 54.1091 3.91004C54.199 4.00041 54.2694 4.1083 54.3158 4.22699C54.3623 4.34569 54.3838 4.47267 54.3791 4.60004V4.90004C54.3838 5.02742 54.3623 5.1544 54.3158 5.27309C54.2694 5.39179 54.199 5.49967 54.1091 5.59004C53.8695 5.7903 53.5602 5.88739 53.2491 5.86004C53.085 5.87431 52.9196 5.85312 52.7643 5.7979C52.6091 5.74269 52.4675 5.65475 52.3491 5.54004L52.3891 5.59004ZM52.2491 7.00004H54.1691V14.82H52.2491V7.00004ZM60.5191 6.82004C60.0352 6.80822 59.5596 6.94808 59.1591 7.22004C58.778 7.47248 58.4982 7.85143 58.3691 8.29004H58.3091V3.68004H56.3891V14.77H58.3091V13.47H58.3691C58.5076 13.9094 58.7892 14.2896 59.1691 14.55C59.5654 14.8231 60.0381 14.9632 60.5191 14.95C60.9585 14.975 61.3973 14.8913 61.7967 14.7064C62.1961 14.5216 62.5438 14.2412 62.8091 13.89C63.3741 12.9952 63.6467 11.9467 63.5891 10.89C63.6535 9.83266 63.3804 8.78216 62.8091 7.89004C62.5504 7.52789 62.2056 7.23587 61.8058 7.04033C61.406 6.84479 60.9638 6.7519 60.5191 6.77004V6.82004ZM61.5891 11.58C61.6126 12.0708 61.444 12.5514 61.1191 12.92C60.964 13.0832 60.7758 13.2113 60.5671 13.2959C60.3584 13.3804 60.1341 13.4193 59.9091 13.41C59.4915 13.4014 59.088 13.2576 58.7591 13C58.6116 12.8934 58.4931 12.7515 58.4145 12.5873C58.3359 12.4231 58.2997 12.2418 58.3091 12.06V9.60004C58.3047 9.42323 58.3433 9.248 58.4217 9.08946C58.5001 8.93092 58.6159 8.79383 58.7591 8.69004C59.0935 8.44999 59.4977 8.32696 59.9091 8.34004C60.1358 8.33199 60.3614 8.37345 60.5704 8.46153C60.7794 8.54961 60.9666 8.68219 61.1191 8.85004C61.444 9.21864 61.6126 9.69926 61.5891 10.19V11.58ZM67.2991 13.28H68.2991V14.82H67.2991C67.0351 14.8436 66.7691 14.8122 66.5179 14.7278C66.2666 14.6435 66.0355 14.5081 65.8391 14.33C65.5132 13.9389 65.3487 13.4382 65.3791 12.93V3.68004H67.2991V13.28ZM71.5991 3.91004C71.689 4.00041 71.7594 4.1083 71.8058 4.22699C71.8523 4.34569 71.8738 4.47267 71.8691 4.60004V4.90004C71.8738 5.02742 71.8523 5.1544 71.8058 5.27309C71.7594 5.39179 71.689 5.49967 71.5991 5.59004C71.3595 5.7903 71.0502 5.88739 70.7391 5.86004C70.5851 5.87414 70.4297 5.85753 70.2821 5.81119C70.1345 5.76484 69.9975 5.68968 69.8791 5.59004C69.7077 5.40156 69.6148 5.15476 69.6191 4.90004V4.60004C69.6148 4.34532 69.7077 4.09853 69.8791 3.91004C69.9975 3.81041 70.1345 3.73524 70.2821 3.6889C70.4297 3.64255 70.5851 3.62595 70.7391 3.64004C71.0435 3.59864 71.352 3.67757 71.5991 3.86004V3.91004ZM69.7791 7.00004H71.6991V14.82H69.7791V7.00004ZM79.6791 7.92004C79.3621 7.56396 78.9691 7.28371 78.5291 7.10004C77.5631 6.73166 76.4952 6.73166 75.5291 7.10004C75.0967 7.28687 74.7109 7.56687 74.3991 7.92004C74.0715 8.29281 73.8232 8.7283 73.6691 9.20004C73.4902 9.74869 73.4023 10.323 73.4091 10.9C73.4039 11.477 73.4917 12.051 73.6691 12.6C73.8232 13.0748 74.0715 13.5135 74.3991 13.89C74.7075 14.2494 75.094 14.5333 75.5291 14.72C76.4952 15.0884 77.5631 15.0884 78.5291 14.72C78.9716 14.5363 79.3653 14.2521 79.6791 13.89C80.0068 13.5135 80.2551 13.0748 80.4091 12.6C80.5832 12.0505 80.6676 11.4765 80.6591 10.9C80.6692 10.3235 80.5847 9.74926 80.4091 9.20004C80.2614 8.71059 80.0127 8.25752 79.6791 7.87004V7.92004ZM78.6791 11.63C78.7168 12.1219 78.5627 12.6092 78.2491 12.99C78.0938 13.1488 77.9064 13.2728 77.6996 13.3538C77.4927 13.4349 77.271 13.4711 77.0491 13.46C76.8303 13.4701 76.6119 13.4334 76.4084 13.3524C76.2049 13.2713 76.0211 13.1478 75.8691 12.99C75.5529 12.6102 75.3953 12.1231 75.4291 11.63V10.13C75.3969 9.64022 75.5544 9.15678 75.8691 8.78004C76.0154 8.62863 76.1911 8.50881 76.3854 8.42797C76.5798 8.34713 76.7887 8.307 76.9991 8.31004C77.221 8.29902 77.4427 8.33522 77.6496 8.41624C77.8565 8.49726 78.0438 8.62126 78.1991 8.78004C78.5112 9.15777 78.6652 9.64143 78.6291 10.13L78.6791 11.63ZM84.6791 7.00004H86.2791V8.49004H84.6791V13.23H86.1691V14.77H84.7391C84.4662 14.789 84.1923 14.7537 83.9331 14.6662C83.6739 14.5787 83.4347 14.4406 83.2291 14.26C83.0472 14.0611 82.9073 13.8275 82.818 13.5732C82.7286 13.3188 82.6916 13.049 82.7091 12.78V8.49004H81.5591V7.00004H82.1591C82.2662 7.01301 82.3748 7.00177 82.4769 6.96716C82.579 6.93254 82.6721 6.87543 82.7491 6.80004C82.8669 6.61929 82.923 6.40531 82.9091 6.19004V4.81004H84.6291L84.6791 7.00004ZM93.6791 8.00004C93.3806 7.63147 93.0006 7.33711 92.5691 7.14004C92.0683 6.92148 91.5255 6.81565 90.9791 6.83004C90.4548 6.82287 89.9345 6.9215 89.4491 7.12004C89.0116 7.30761 88.622 7.59129 88.3091 7.95004C87.9894 8.32502 87.748 8.76025 87.5991 9.23004C87.4292 9.77368 87.3448 10.3405 87.3491 10.91C87.3439 11.487 87.4317 12.061 87.6091 12.61C87.7608 13.0828 88.0094 13.5188 88.3391 13.89C88.6537 14.2513 89.0472 14.5353 89.4891 14.72C89.9697 14.91 90.4824 15.0051 90.9991 15C91.6621 15.0115 92.32 14.882 92.9291 14.62C93.4504 14.3864 93.9019 14.0211 94.2391 13.56L93.2391 12.4C93.0125 12.6959 92.7389 12.9527 92.4291 13.16C92.0734 13.3727 91.6633 13.477 91.2491 13.46C90.989 13.4802 90.7276 13.4442 90.4826 13.3545C90.2376 13.2648 90.0147 13.1234 89.8291 12.94C89.4966 12.5674 89.3242 12.0788 89.3491 11.58V11.39H94.5491V10.76C94.5497 10.2454 94.4756 9.7334 94.3291 9.24004C94.1858 8.76598 93.9514 8.32441 93.6391 7.94004L93.6791 8.00004ZM92.5491 10.22H89.3491V10C89.3284 9.51919 89.489 9.04809 89.7991 8.68004C89.9529 8.51913 90.14 8.39371 90.3472 8.31253C90.5545 8.23135 90.777 8.19638 90.9991 8.21004C91.2165 8.19824 91.4336 8.23729 91.6333 8.32409C91.8329 8.41088 92.0095 8.54303 92.1491 8.71004C92.4081 9.08859 92.5346 9.54211 92.5091 10L92.5491 10.22ZM103.479 14.83H101.199L99.1991 11.33L98.1991 12.45V14.83H96.1991V3.68004H98.1191V10.37H98.1891L99.1891 8.96004L100.999 7.00004H103.169L100.479 10L103.479 14.83ZM48.0491 22.69H47.9991C47.8656 22.2537 47.5868 21.8761 47.2091 21.62C46.8019 21.3555 46.3246 21.2197 45.8391 21.23C45.4038 21.2064 44.9693 21.2898 44.5736 21.4728C44.1779 21.6558 43.833 21.933 43.5691 22.28C42.9979 23.1722 42.7248 24.2227 42.7891 25.28C42.7302 26.3369 43.0029 27.3857 43.5691 28.28C43.8303 28.6314 44.174 28.9129 44.57 29.0996C44.966 29.2862 45.4019 29.3723 45.8391 29.35C46.3141 29.372 46.7847 29.25 47.1891 29C47.5762 28.7448 47.8625 28.363 47.9991 27.92H48.0691V29.23H49.9991V18.14H48.0491V22.69ZM48.0491 26.54C48.0592 26.7244 48.0223 26.9083 47.9418 27.0744C47.8613 27.2406 47.74 27.3836 47.5891 27.49C47.2504 27.7191 46.8478 27.8346 46.4391 27.82C46.2134 27.828 45.9886 27.7875 45.7799 27.7013C45.5712 27.615 45.3834 27.485 45.2291 27.32C44.9136 26.9545 44.7492 26.4825 44.7691 26V24.64C44.7481 24.1514 44.9124 23.6727 45.2291 23.3C45.3834 23.1351 45.5712 23.0051 45.7799 22.9188C45.9886 22.8326 46.2134 22.7921 46.4391 22.8C46.8494 22.7841 47.2535 22.9035 47.5891 23.14C47.7356 23.2437 47.8542 23.3819 47.9345 23.5424C48.0147 23.7029 48.0541 23.8807 48.0491 24.06V26.54ZM56.5091 24.43L59.5091 29.23H57.2091L55.2091 25.72L54.2091 26.84V29.23H52.2491V18.14H54.1691V24.82H54.2491L55.2491 23.41L56.9991 21.41H59.1791L56.5091 24.43Z" fill="#212121" />
   </g>
   <defs>
      <clipPath clipPathUnits="userSpaceOnUse">
         <rect style="fill:#0000ff;fill-rule:evenodd" width="34.657158" height="35.225582" x="0" y="4.7895101e-05" />
      </clipPath>
   </defs>
</svg>
